<svg xmlns:xlink="http://www.w3.org/1999/xlink" xmlns="http://www.w3.org/2000/svg" xml:space="preserve" style="max-height: 500px; background: transparent;" viewBox="265 120 209 34" y="0px" x="0px" version="1.1" width="209" height="34">
<g id="BACKGROUND">
	
</g>
<g id="OBJECTS">
	<g>
		<g>
			<g>
				<g>
					<path d="M105.846,63.076&#10;&#9;&#9;&#9;&#9;&#9;&#9;c-0.333-0.802-1.253-1.181-2.054-0.848c-1.084,0.451-1.598,1.695-1.147,2.779c0.609,1.466,1.909,2.07,3.758,1.552l16.164-5.251&#10;&#9;&#9;&#9;&#9;&#9;&#9;c3.839-1.076,6.538,0.177,7.803,3.222c0.936,2.251-0.131,4.835-2.382,5.77c-1.665,0.692-3.575-0.097-4.267-1.762&#10;&#9;&#9;&#9;&#9;&#9;&#9;c-0.511-1.231,0.072-2.644,1.303-3.155c0.91-0.378,1.955,0.053,2.333,0.963" style="fill:#000000;stroke:#000000;stroke-linecap:round;stroke-linejoin:round;stroke-miterlimit:10;"/>
				</g>
				<g>
					<path d="M105.846,78.51&#10;&#9;&#9;&#9;&#9;&#9;&#9;c-0.333,0.802-1.253,1.181-2.054,0.848c-1.084-0.451-1.598-1.695-1.147-2.779c0.609-1.466,1.909-2.069,3.758-1.551&#10;&#9;&#9;&#9;&#9;&#9;&#9;l16.164,5.251c3.839,1.076,6.538-0.177,7.803-3.222c0.936-2.251-0.131-4.835-2.382-5.77c-1.665-0.692-3.575,0.097-4.267,1.762&#10;&#9;&#9;&#9;&#9;&#9;&#9;c-0.511,1.231,0.072,2.644,1.303,3.155c0.91,0.378,1.955-0.053,2.333-0.963" style="fill:#000000;stroke:#000000;stroke-linecap:round;stroke-linejoin:round;stroke-miterlimit:10;"/>
				</g>
			</g>
			<g>
				<g>
					<path d="M168.365,63.076&#10;&#9;&#9;&#9;&#9;&#9;&#9;c0.333-0.802,1.253-1.181,2.055-0.848c1.084,0.451,1.598,1.695,1.147,2.779c-0.609,1.466-1.909,2.07-3.758,1.552l-16.164-5.251&#10;&#9;&#9;&#9;&#9;&#9;&#9;c-3.839-1.076-6.538,0.177-7.803,3.222c-0.935,2.251,0.131,4.835,2.383,5.77c1.665,0.692,3.575-0.097,4.267-1.762&#10;&#9;&#9;&#9;&#9;&#9;&#9;c0.511-1.231-0.072-2.644-1.303-3.155c-0.91-0.378-1.955,0.053-2.333,0.963" style="fill:#000000;stroke:#000000;stroke-linecap:round;stroke-linejoin:round;stroke-miterlimit:10;"/>
				</g>
				<g>
					<path d="M168.365,78.51&#10;&#9;&#9;&#9;&#9;&#9;&#9;c0.333,0.802,1.253,1.181,2.055,0.848c1.084-0.451,1.598-1.695,1.147-2.779c-0.609-1.466-1.909-2.069-3.758-1.551&#10;&#9;&#9;&#9;&#9;&#9;&#9;l-16.164,5.251c-3.839,1.076-6.538-0.177-7.803-3.222c-0.935-2.251,0.131-4.835,2.383-5.77&#10;&#9;&#9;&#9;&#9;&#9;&#9;c1.665-0.692,3.575,0.097,4.267,1.762c0.511,1.231-0.072,2.644-1.303,3.155c-0.91,0.378-1.955-0.053-2.333-0.963" style="fill:#000000;stroke:#000000;stroke-linecap:round;stroke-linejoin:round;stroke-miterlimit:10;"/>
				</g>
			</g>
			<g>
				<g>
					
						<line y2="70.724" x2="126.503" y1="70.724" x1="44.874" style="fill:#000000;stroke:#000000;stroke-linecap:round;stroke-linejoin:round;stroke-miterlimit:10;"/>
					
						<rect height="3.536" width="3.536" style="fill:#000000;" transform="matrix(0.7071 -0.7071 0.7071 0.7071 -38.5812 48.3051)" y="68.956" x="37.251"/>
				</g>
				<g>
					
						<line y2="70.724" x2="147.89" y1="70.724" x1="229.519" style="fill:#000000;stroke:#000000;stroke-linecap:round;stroke-linejoin:round;stroke-miterlimit:10;"/>
					
						<rect height="3.536" width="3.536" style="fill:#000000;" transform="matrix(0.7071 -0.7071 0.7071 0.7071 18.9301 187.1496)" y="68.956" x="233.607"/>
				</g>
			</g>
		</g>
		<polygon points="137.197,65.866 140.536,70.793 137.197,75.719 133.857,70.793" style="fill:#000000;stroke:#000000;stroke-linecap:round;stroke-linejoin:round;stroke-miterlimit:10;"/>
		<g>
			
				<rect height="2.218" width="2.218" style="fill:#000000;" transform="matrix(0.7071 -0.7071 0.7071 0.7071 -3.415 115.072)" y="60.549" x="136.088"/>
			
				<rect height="2.218" width="2.218" style="fill:#000000;" transform="matrix(0.7071 -0.7071 0.7071 0.7071 -16.3332 120.4229)" y="78.818" x="136.088"/>
		</g>
	</g>
	<g>
		<g>
			<g>
				<path d="M348.243,78.385&#10;&#9;&#9;&#9;&#9;&#9;c-0.275,0.661-1.034,0.975-1.695,0.7c-0.895-0.372-1.318-1.398-0.947-2.293c0.503-1.21,1.575-1.708,3.101-1.28l13.337,4.333&#10;&#9;&#9;&#9;&#9;&#9;c3.168,0.888,5.395-0.146,6.439-2.659c0.772-1.858-0.108-3.989-1.966-4.761c-1.374-0.571-2.95,0.08-3.521,1.454&#10;&#9;&#9;&#9;&#9;&#9;c-0.422,1.016,0.059,2.181,1.075,2.603c0.751,0.312,1.613-0.044,1.925-0.795" style="fill:#000000;stroke:#000000;stroke-linecap:round;stroke-linejoin:round;stroke-miterlimit:10;"/>
				<path d="M389.271,78.385&#10;&#9;&#9;&#9;&#9;&#9;c0.275,0.661,1.034,0.975,1.695,0.7c0.895-0.372,1.318-1.398,0.947-2.293c-0.503-1.21-1.575-1.708-3.1-1.28l-13.337,4.333&#10;&#9;&#9;&#9;&#9;&#9;c-3.168,0.888-5.395-0.146-6.439-2.659c-0.772-1.858,0.108-3.989,1.966-4.761c1.374-0.571,2.95,0.08,3.521,1.454&#10;&#9;&#9;&#9;&#9;&#9;c0.422,1.016-0.059,2.181-1.075,2.603c-0.751,0.312-1.613-0.044-1.925-0.795" style="fill:#000000;stroke:#000000;stroke-linecap:round;stroke-linejoin:round;stroke-miterlimit:10;"/>
			</g>
			<g>
				<path d="M348.243,63.201&#10;&#9;&#9;&#9;&#9;&#9;c-0.275-0.661-1.034-0.975-1.695-0.7c-0.895,0.372-1.318,1.398-0.947,2.293c0.503,1.21,1.575,1.708,3.101,1.28l13.337-4.333&#10;&#9;&#9;&#9;&#9;&#9;c3.168-0.888,5.395,0.146,6.439,2.659c0.772,1.858-0.108,3.989-1.966,4.761c-1.374,0.571-2.95-0.08-3.521-1.454&#10;&#9;&#9;&#9;&#9;&#9;c-0.422-1.016,0.059-2.181,1.075-2.603c0.751-0.312,1.613,0.044,1.925,0.795" style="fill:#000000;stroke:#000000;stroke-linecap:round;stroke-linejoin:round;stroke-miterlimit:10;"/>
				<path d="M389.271,63.201&#10;&#9;&#9;&#9;&#9;&#9;c0.275-0.661,1.034-0.975,1.695-0.7c0.895,0.372,1.318,1.398,0.947,2.293c-0.503,1.21-1.575,1.708-3.1,1.28l-13.337-4.333&#10;&#9;&#9;&#9;&#9;&#9;c-3.168-0.888-5.395,0.146-6.439,2.659c-0.772,1.858,0.108,3.989,1.966,4.761c1.374,0.571,2.95-0.08,3.521-1.454&#10;&#9;&#9;&#9;&#9;&#9;c0.422-1.016-0.059-2.181-1.075-2.603c-0.751-0.312-1.613,0.044-1.925,0.795" style="fill:#000000;stroke:#000000;stroke-linecap:round;stroke-linejoin:round;stroke-miterlimit:10;"/>
			</g>
		</g>
		<g>
			
				<line y2="70.793" x2="285.315" y1="70.793" x1="358.617" style="fill:#000000;stroke:#000000;stroke-linecap:round;stroke-linejoin:round;stroke-miterlimit:10;"/>
			
				<line y2="70.793" x2="378.897" y1="70.793" x1="453.199" style="fill:#000000;stroke:#000000;stroke-linecap:round;stroke-linejoin:round;stroke-miterlimit:10;"/>
		</g>
		<g>
			<path d="M281.85,70.793c0,1.218-0.988,2.206-2.206,2.206c-1.219,0-2.206-0.988-2.206-2.206&#10;&#9;&#9;&#9;&#9;s0.988-2.206,2.206-2.206C280.862,68.587,281.85,69.574,281.85,70.793z" style="fill:#000000;"/>
			<path d="M461.077,70.793c0,1.218-0.988,2.206-2.206,2.206c-1.218,0-2.206-0.988-2.206-2.206&#10;&#9;&#9;&#9;&#9;s0.988-2.206,2.206-2.206C460.089,68.587,461.077,69.574,461.077,70.793z" style="fill:#000000;"/>
		</g>
		<g>
			<polygon points="368.757,81.195 370.732,84.001 368.757,86.808 366.781,84.001" style="fill:#000000;"/>
			<polygon points="368.757,54.778 370.732,57.584 368.757,60.391 366.781,57.584" style="fill:#000000;"/>
		</g>
	</g>
	<g>
		<g>
			<g>
				<g>
					<polygon points="129.505,133.723 130.423,138.16 129.505,142.597 134.505,138.16" style="fill:#000000;"/>
					
						<line y2="138.16" x2="62.546" y1="138.16" x1="130.331" style="fill:#000000;stroke:#000000;stroke-linecap:round;stroke-linejoin:round;stroke-miterlimit:10;"/>
					<path d="M62.285,138.16&#10;&#9;&#9;&#9;&#9;&#9;&#9;c0,1.417-1.149,2.566-2.566,2.566s-2.566-1.149-2.566-2.566s1.149-2.566,2.566-2.566S62.285,136.743,62.285,138.16z" style="fill:#000000;stroke:#000000;stroke-linecap:round;stroke-linejoin:round;stroke-miterlimit:10;"/>
					
						<line y2="138.16" x2="39.895" y1="138.16" x1="56.799" style="fill:#000000;stroke:#000000;stroke-linecap:round;stroke-linejoin:round;stroke-miterlimit:10;"/>
					<g>
						<polygon points="52.611,138.165 49.7,138.165 48.245,135.314 51.156,135.314" style="fill:#000000;"/>
						<polygon points="52.611,138.155 49.7,138.155 48.245,141.005 51.156,141.005" style="fill:#000000;"/>
					</g>
					<g>
						<polygon points="45.987,138.165 39.229,138.165 37.197,135.268 43.955,135.268" style="fill:#000000;"/>
						<polygon points="45.987,138.155 39.229,138.155 37.197,141.052 43.955,141.052" style="fill:#000000;"/>
					</g>
				</g>
			</g>
			<g>
				
					<line y2="140.49" x2="67.27" y1="135.829" x1="67.27" style="fill:#000000;stroke:#000000;stroke-linecap:round;stroke-linejoin:round;stroke-miterlimit:10;"/>
			</g>
		</g>
		<g>
			<g>
				<g>
					<polygon points="144.888,133.723 143.97,138.16 144.888,142.597 139.888,138.16" style="fill:#000000;"/>
					
						<line y2="138.16" x2="211.848" y1="138.16" x1="144.062" style="fill:#000000;stroke:#000000;stroke-linecap:round;stroke-linejoin:round;stroke-miterlimit:10;"/>
					<path d="M212.108,138.16&#10;&#9;&#9;&#9;&#9;&#9;&#9;c0,1.417,1.149,2.566,2.566,2.566c1.417,0,2.566-1.149,2.566-2.566s-1.149-2.566-2.566-2.566&#10;&#9;&#9;&#9;&#9;&#9;&#9;C213.257,135.594,212.108,136.743,212.108,138.16z" style="fill:#000000;stroke:#000000;stroke-linecap:round;stroke-linejoin:round;stroke-miterlimit:10;"/>
					
						<line y2="138.16" x2="234.499" y1="138.16" x1="217.594" style="fill:#000000;stroke:#000000;stroke-linecap:round;stroke-linejoin:round;stroke-miterlimit:10;"/>
					<g>
						<polygon points="221.783,138.165 224.693,138.165 226.148,135.314 223.238,135.314" style="fill:#000000;"/>
						<polygon points="221.783,138.155 224.693,138.155 226.148,141.005 223.238,141.005" style="fill:#000000;"/>
					</g>
					<g>
						<polygon points="228.406,138.165 235.165,138.165 237.197,135.268 230.438,135.268" style="fill:#000000;"/>
						<polygon points="228.406,138.155 235.165,138.155 237.197,141.052 230.438,141.052" style="fill:#000000;"/>
					</g>
				</g>
			</g>
			<g>
				
					<line y2="140.49" x2="207.123" y1="135.829" x1="207.123" style="fill:#000000;stroke:#000000;stroke-linecap:round;stroke-linejoin:round;stroke-miterlimit:10;"/>
			</g>
		</g>
	</g>
	<g>
		<g>
			<polygon points="369.257,132.429 363.103,138.16 369.257,143.891 375.411,138.16" style="fill:#000000;stroke:#000000;stroke-linecap:round;stroke-linejoin:round;stroke-miterlimit:10;"/>
			<g>
				<polyline points="364.549,136.443 362.501,134.536 358.61,138.16 362.501,141.783 364.549,139.876" style="fill:#000000;stroke:#000000;stroke-linecap:round;stroke-linejoin:round;stroke-miterlimit:10;"/>
				<polyline points="373.965,136.443 376.013,134.536 379.904,138.16 376.013,141.783 373.965,139.876" style="fill:#000000;stroke:#000000;stroke-linecap:round;stroke-linejoin:round;stroke-miterlimit:10;"/>
			</g>
		</g>
		<g>
			<g>
				<g>
					<polygon points="354.131,135.832 351.631,138.16 354.131,140.488 356.631,138.16" style="fill:#000000;"/>
				</g>
			</g>
			<g>
				<g>
					<polygon points="384.383,135.832 381.883,138.16 384.383,140.488 386.883,138.16" style="fill:#000000;"/>
				</g>
			</g>
		</g>
		<g>
			
				<line y2="138.16" x2="282.614" y1="138.16" x1="353.712" style="fill:#000000;stroke:#000000;stroke-linecap:round;stroke-linejoin:round;stroke-miterlimit:10;"/>
			
				<line y2="138.16" x2="384.803" y1="138.16" x1="455.901" style="fill:#000000;stroke:#000000;stroke-linecap:round;stroke-linejoin:round;stroke-miterlimit:10;"/>
		</g>
		<g>
			<polygon points="456.948,135.565 462.75,138.16 456.948,140.755 454.104,138.16" style="fill:#000000;"/>
			<polygon points="281.566,135.565 275.765,138.16 281.566,140.755 284.41,138.16" style="fill:#000000;"/>
		</g>
	</g>
	<g>
		<g>
			<g>
				<g>
					<path d="M55.751,205.527&#10;&#9;&#9;&#9;&#9;&#9;&#9;h-1.306c-2.599,0.101-4.024,1.414-4.2,3.558c-0.13,1.585,1.05,2.976,2.635,3.105c1.172,0.096,2.2-0.777,2.296-1.949&#10;&#9;&#9;&#9;&#9;&#9;&#9;c0.071-0.867-0.574-1.627-1.441-1.698" style="fill:#000000;stroke:#000000;stroke-linecap:round;stroke-linejoin:round;stroke-miterlimit:10;"/>
					<path d="M55.751,205.527&#10;&#9;&#9;&#9;&#9;&#9;&#9;h-1.306c-2.599-0.101-4.024-1.414-4.2-3.558c-0.13-1.585,1.05-2.976,2.635-3.105c1.172-0.096,2.2,0.776,2.296,1.949&#10;&#9;&#9;&#9;&#9;&#9;&#9;c0.071,0.867-0.574,1.627-1.441,1.698" style="fill:#000000;stroke:#000000;stroke-linecap:round;stroke-linejoin:round;stroke-miterlimit:10;"/>
				</g>
				
					<line y2="205.531" x2="129.726" y1="205.531" x1="55.751" style="fill:#000000;stroke:#000000;stroke-linecap:round;stroke-linejoin:round;stroke-miterlimit:10;"/>
				<polygon points="45.835,203.081 37.521,205.531 45.835,207.982 48.521,205.531" style="fill:#000000;"/>
			</g>
			<g>
				<g>
					<path d="M218.643,205.527&#10;&#9;&#9;&#9;&#9;&#9;&#9;h1.306c2.6,0.101,4.024,1.414,4.2,3.558c0.13,1.585-1.05,2.976-2.635,3.105c-1.172,0.096-2.2-0.777-2.296-1.949&#10;&#9;&#9;&#9;&#9;&#9;&#9;c-0.071-0.867,0.574-1.627,1.441-1.698" style="fill:#000000;stroke:#000000;stroke-linecap:round;stroke-linejoin:round;stroke-miterlimit:10;"/>
					<path d="M218.643,205.527&#10;&#9;&#9;&#9;&#9;&#9;&#9;h1.306c2.6-0.101,4.024-1.414,4.2-3.558c0.13-1.585-1.05-2.976-2.635-3.105c-1.172-0.096-2.2,0.776-2.296,1.949&#10;&#9;&#9;&#9;&#9;&#9;&#9;c-0.071,0.867,0.574,1.627,1.441,1.698" style="fill:#000000;stroke:#000000;stroke-linecap:round;stroke-linejoin:round;stroke-miterlimit:10;"/>
				</g>
				
					<line y2="205.531" x2="144.667" y1="205.531" x1="218.643" style="fill:#000000;stroke:#000000;stroke-linecap:round;stroke-linejoin:round;stroke-miterlimit:10;"/>
				<polygon points="228.559,203.081 236.873,205.531 228.559,207.982 225.873,205.531" style="fill:#000000;"/>
			</g>
		</g>
		<polygon points="137.197,198.543 132.947,205.527 137.197,212.511 141.446,205.527" style="fill:#000000;stroke:#000000;stroke-linecap:round;stroke-linejoin:round;stroke-miterlimit:10;"/>
	</g>
	<g>
		<g>
			<g>
				<path d="M349.786,199.658&#10;&#9;&#9;&#9;&#9;&#9;c-0.292-0.664-1.067-0.966-1.731-0.675c-0.898,0.395-1.307,1.442-0.912,2.341c0.533,1.215,1.629,1.697,3.165,1.234l13.417-4.656&#10;&#9;&#9;&#9;&#9;&#9;c3.19-0.963,5.466,0.039,6.573,2.562c0.819,1.865-0.029,4.042-1.895,4.861c-1.379,0.606-2.989-0.022-3.594-1.401&#10;&#9;&#9;&#9;&#9;&#9;c-0.448-1.02,0.016-2.21,1.036-2.658c0.754-0.331,1.634,0.012,1.965,0.766" style="fill:#000000;stroke:#000000;stroke-linecap:round;stroke-linejoin:round;stroke-miterlimit:10;"/>
				<path d="M388.729,199.658&#10;&#9;&#9;&#9;&#9;&#9;c0.292-0.664,1.066-0.966,1.731-0.675c0.898,0.395,1.307,1.442,0.912,2.341c-0.533,1.215-1.629,1.697-3.165,1.234l-13.417-4.656&#10;&#9;&#9;&#9;&#9;&#9;c-3.19-0.963-5.466,0.039-6.573,2.562c-0.819,1.865,0.029,4.042,1.895,4.861c1.379,0.606,2.989-0.022,3.594-1.401&#10;&#9;&#9;&#9;&#9;&#9;c0.448-1.02-0.016-2.21-1.036-2.658c-0.754-0.331-1.634,0.012-1.965,0.766" style="fill:#000000;stroke:#000000;stroke-linecap:round;stroke-linejoin:round;stroke-miterlimit:10;"/>
			</g>
			<g>
				<path d="M388.729,211.395&#10;&#9;&#9;&#9;&#9;&#9;c0.292,0.664,1.066,0.966,1.731,0.675c0.898-0.395,1.307-1.442,0.912-2.341c-0.533-1.215-1.629-1.697-3.165-1.234l-13.417,4.656&#10;&#9;&#9;&#9;&#9;&#9;c-3.19,0.963-5.466-0.039-6.573-2.562c-0.819-1.865,0.029-4.042,1.895-4.861c1.379-0.606,2.989,0.022,3.594,1.401&#10;&#9;&#9;&#9;&#9;&#9;c0.448,1.02-0.016,2.21-1.036,2.658c-0.754,0.331-1.634-0.012-1.965-0.766" style="fill:#000000;stroke:#000000;stroke-linecap:round;stroke-linejoin:round;stroke-miterlimit:10;"/>
				<path d="M349.786,211.395&#10;&#9;&#9;&#9;&#9;&#9;c-0.292,0.664-1.067,0.966-1.731,0.675c-0.898-0.395-1.307-1.442-0.912-2.341c0.533-1.215,1.629-1.697,3.165-1.234l13.417,4.656&#10;&#9;&#9;&#9;&#9;&#9;c3.19,0.963,5.466-0.039,6.573-2.562c0.819-1.865-0.029-4.042-1.895-4.861c-1.379-0.606-2.989,0.022-3.594,1.401&#10;&#9;&#9;&#9;&#9;&#9;c-0.448,1.02,0.016,2.21,1.036,2.658c0.754,0.331,1.634-0.012,1.965-0.766" style="fill:#000000;stroke:#000000;stroke-linecap:round;stroke-linejoin:round;stroke-miterlimit:10;"/>
			</g>
		</g>
		<g>
			
				<line y2="205.527" x2="362.81" y1="205.527" x1="285.175" style="fill:#000000;stroke:#000000;stroke-linecap:round;stroke-linejoin:round;stroke-miterlimit:10;"/>
			
				<line y2="205.527" x2="453.339" y1="205.527" x1="375.704" style="fill:#000000;stroke:#000000;stroke-linecap:round;stroke-linejoin:round;stroke-miterlimit:10;"/>
		</g>
		<g>
			<polygon points="280.849,202.651 276.257,205.527 280.849,208.403 285.44,205.527" style="fill:#000000;stroke:#000000;stroke-linecap:round;stroke-linejoin:round;stroke-miterlimit:10;"/>
			<polygon points="457.666,202.651 453.075,205.527 457.666,208.403 462.257,205.527" style="fill:#000000;stroke:#000000;stroke-linecap:round;stroke-linejoin:round;stroke-miterlimit:10;"/>
		</g>
	</g>
	<g>
		<g>
			<g>
				<path d="M332.685,328.71&#10;&#9;&#9;&#9;&#9;&#9;c-0.256,0.617-0.965,0.91-1.582,0.653c-0.835-0.347-1.23-1.305-0.883-2.139c0.469-1.129,1.47-1.593,2.893-1.195l24.641,7.471&#10;&#9;&#9;&#9;&#9;&#9;c2.956,0.828,5.034-0.137,6.008-2.481c0.72-1.733-0.101-3.723-1.834-4.443c-1.282-0.533-2.753,0.075-3.285,1.357&#10;&#9;&#9;&#9;&#9;&#9;c-0.394,0.948,0.055,2.035,1.003,2.429" style="fill:#000000;stroke:#000000;stroke-linecap:round;stroke-linejoin:round;stroke-miterlimit:10;"/>
				<path d="M405.829,328.71&#10;&#9;&#9;&#9;&#9;&#9;c0.256,0.617,0.965,0.91,1.582,0.653c0.835-0.347,1.23-1.305,0.883-2.139c-0.469-1.129-1.47-1.593-2.893-1.195L380.76,333.5&#10;&#9;&#9;&#9;&#9;&#9;c-2.956,0.828-5.034-0.137-6.008-2.481c-0.72-1.733,0.101-3.723,1.834-4.443c1.282-0.533,2.753,0.075,3.285,1.357&#10;&#9;&#9;&#9;&#9;&#9;c0.394,0.948-0.055,2.035-1.003,2.429" style="fill:#000000;stroke:#000000;stroke-linecap:round;stroke-linejoin:round;stroke-miterlimit:10;"/>
			</g>
			<g>
				
					<line y2="334.052" x2="286.531" y1="334.052" x1="349.96" style="fill:#000000;stroke:#000000;stroke-linecap:round;stroke-linejoin:round;stroke-miterlimit:10;"/>
				
					<line y2="334.052" x2="390.159" y1="334.052" x1="451.984" style="fill:#000000;stroke:#000000;stroke-linecap:round;stroke-linejoin:round;stroke-miterlimit:10;"/>
			</g>
			<g>
				<g>
					<g>
						<path d="M369.257,335.628l-9.286,4.675c-2.009,0.805-2.757,2.236-2.296,3.965c0.341,1.279,1.654,2.039,2.932,1.698&#10;&#9;&#9;&#9;&#9;&#9;&#9;&#9;c0.945-0.252,1.508-1.223,1.255-2.168c-0.186-0.699-0.904-1.115-1.603-0.928" style="fill:#000000;stroke:#000000;stroke-linecap:round;stroke-linejoin:round;stroke-miterlimit:10;"/>
					</g>
				</g>
				<g>
					<g>
						<path d="M369.257,335.628l9.286,4.675c2.009,0.805,2.757,2.236,2.296,3.965c-0.341,1.279-1.654,2.039-2.932,1.698&#10;&#9;&#9;&#9;&#9;&#9;&#9;&#9;c-0.945-0.252-1.508-1.223-1.255-2.168c0.186-0.699,0.904-1.115,1.603-0.928" style="fill:#000000;stroke:#000000;stroke-linecap:round;stroke-linejoin:round;stroke-miterlimit:10;"/>
					</g>
				</g>
			</g>
			<polygon points="369.257,349.982 371.373,342.807 369.257,339.646 367.141,342.807" style="fill:#000000;"/>
			<polygon points="369.257,332.674 370.797,330.372 369.257,328.071 367.717,330.372" style="fill:#000000;"/>
			<g>
				<path d="M350.643,337.667c-2.48,0.825-3.241,2.962-3.241,2.962s1.986,1.224,4.466,0.399&#10;&#9;&#9;&#9;&#9;&#9;c2.48-0.825,6.326-3.987,6.326-3.987S353.124,336.842,350.643,337.667z" style="fill:#000000;"/>
				<path d="M387.871,337.667c-2.48-0.824-7.551-0.626-7.551-0.626s3.845,3.162,6.326,3.987&#10;&#9;&#9;&#9;&#9;&#9;c2.48,0.825,4.466-0.399,4.466-0.399S390.351,338.491,387.871,337.667z" style="fill:#000000;"/>
			</g>
			<g>
				<g>
					
						<line y2="335.415" x2="287.713" y1="332.69" x1="284.988" style="fill:#000000;stroke:#000000;stroke-linecap:round;stroke-linejoin:round;stroke-miterlimit:10;"/>
					
						<line y2="335.415" x2="283.686" y1="332.69" x1="280.96" style="fill:#000000;stroke:#000000;stroke-linecap:round;stroke-linejoin:round;stroke-miterlimit:10;"/>
				</g>
				
					<line y2="335.415" x2="450.801" y1="332.69" x1="453.527" style="fill:#000000;stroke:#000000;stroke-linecap:round;stroke-linejoin:round;stroke-miterlimit:10;"/>
				
					<line y2="335.415" x2="454.829" y1="332.69" x1="457.554" style="fill:#000000;stroke:#000000;stroke-linecap:round;stroke-linejoin:round;stroke-miterlimit:10;"/>
			</g>
		</g>
		<g>
			<polygon points="279.54,335.035 277.428,333.621 274.212,335.035 277.428,336.448" style="fill:#000000;"/>
			<polygon points="458.975,335.035 461.087,333.621 464.303,335.035 461.087,336.448" style="fill:#000000;"/>
		</g>
	</g>
	<g>
		<g>
			
				<line y2="334.026" x2="129.94" y1="334.026" x1="45.641" style="fill:#000000;stroke:#000000;stroke-linecap:round;stroke-linejoin:round;stroke-miterlimit:10;"/>
			
				<line y2="334.026" x2="228.752" y1="334.026" x1="144.453" style="fill:#000000;stroke:#000000;stroke-linecap:round;stroke-linejoin:round;stroke-miterlimit:10;"/>
		</g>
		<g>
			<path d="M161.776,339.555&#10;&#9;&#9;&#9;&#9;c-0.17,0.413-0.643,0.61-1.056,0.44c-0.559-0.23-0.825-0.869-0.595-1.428c0.311-0.755,0.978-1.068,1.93-0.805l16.483,4.936&#10;&#9;&#9;&#9;&#9;c1.977,0.547,3.364-0.103,4.009-1.671c0.477-1.16-0.076-2.487-1.236-2.965c-0.858-0.353-1.839,0.056-2.192,0.914&#10;&#9;&#9;&#9;&#9;c-0.261,0.634,0.042,1.36,0.676,1.621" style="fill:#000000;stroke:#000000;stroke-linecap:round;stroke-linejoin:round;stroke-miterlimit:10;"/>
			<path d="M112.617,339.555&#10;&#9;&#9;&#9;&#9;c0.17,0.413,0.643,0.61,1.056,0.44c0.559-0.23,0.825-0.869,0.595-1.428c-0.311-0.755-0.979-1.068-1.931-0.805l-16.483,4.936&#10;&#9;&#9;&#9;&#9;c-1.977,0.547-3.364-0.103-4.009-1.671c-0.477-1.16,0.076-2.487,1.236-2.965c0.858-0.353,1.839,0.056,2.192,0.914&#10;&#9;&#9;&#9;&#9;c0.261,0.634-0.042,1.36-0.676,1.621" style="fill:#000000;stroke:#000000;stroke-linecap:round;stroke-linejoin:round;stroke-miterlimit:10;"/>
			<g>
				<path d="M141.959,342.963&#10;&#9;&#9;&#9;&#9;&#9;c-0.164,0.398-0.619,0.588-1.018,0.424c-0.539-0.222-0.796-0.838-0.574-1.377c0.3-0.728,0.943-1.03,1.861-0.776l22.126,6.628&#10;&#9;&#9;&#9;&#9;&#9;c1.907,0.527,3.243-0.099,3.866-1.612c0.46-1.118-0.073-2.398-1.192-2.858c-0.827-0.34-1.773,0.054-2.114,0.881&#10;&#9;&#9;&#9;&#9;&#9;c-0.252,0.612,0.04,1.311,0.652,1.563" style="fill:#000000;stroke:#000000;stroke-linecap:round;stroke-linejoin:round;stroke-miterlimit:10;"/>
				<path d="M132.434,342.963&#10;&#9;&#9;&#9;&#9;&#9;c0.164,0.398,0.62,0.588,1.018,0.424c0.539-0.222,0.796-0.838,0.574-1.377c-0.3-0.728-0.944-1.03-1.862-0.776l-22.125,6.628&#10;&#9;&#9;&#9;&#9;&#9;c-1.907,0.527-3.243-0.099-3.866-1.612c-0.46-1.118,0.073-2.398,1.192-2.858c0.827-0.34,1.773,0.054,2.114,0.881&#10;&#9;&#9;&#9;&#9;&#9;c0.252,0.612-0.04,1.311-0.652,1.563" style="fill:#000000;stroke:#000000;stroke-linecap:round;stroke-linejoin:round;stroke-miterlimit:10;"/>
				<polyline points="142.932,345.411 137.197,349.514 131.461,345.411" style="fill:#000000;stroke:#000000;stroke-linecap:round;stroke-linejoin:round;stroke-miterlimit:10;"/>
				<polyline points="149.924,345.529 137.197,354.633 124.47,345.529" style="fill:#000000;stroke:#000000;stroke-linecap:round;stroke-linejoin:round;stroke-miterlimit:10;"/>
			</g>
		</g>
		<polygon points="137.197,329.737 134.164,334.026 137.197,338.314 140.229,334.026" style="fill:#000000;"/>
		<g>
			<polygon points="37.697,334.026 40.337,336.21 42.977,334.026 40.337,331.842" style="fill:#000000;"/>
			<polygon points="231.416,334.026 234.057,336.21 236.697,334.026 234.057,331.842" style="fill:#000000;"/>
		</g>
		<g>
			<g>
				<g>
					
						<line y2="342.022" x2="118.36" y1="338.829" x1="119.602" style="fill:#000000;stroke:#000000;stroke-linecap:round;stroke-linejoin:round;stroke-miterlimit:10;"/>
					
						<line y2="341.128" x2="121.861" y1="337.935" x1="123.103" style="fill:#000000;stroke:#000000;stroke-linecap:round;stroke-linejoin:round;stroke-miterlimit:10;"/>
					
						<line y2="340.234" x2="125.362" y1="337.041" x1="126.605" style="fill:#000000;stroke:#000000;stroke-linecap:round;stroke-linejoin:round;stroke-miterlimit:10;"/>
				</g>
			</g>
			<g>
				<g>
					
						<line y2="342.022" x2="156.033" y1="338.829" x1="154.791" style="fill:#000000;stroke:#000000;stroke-linecap:round;stroke-linejoin:round;stroke-miterlimit:10;"/>
					
						<line y2="341.128" x2="152.532" y1="337.935" x1="151.29" style="fill:#000000;stroke:#000000;stroke-linecap:round;stroke-linejoin:round;stroke-miterlimit:10;"/>
					
						<line y2="340.234" x2="149.031" y1="337.041" x1="147.789" style="fill:#000000;stroke:#000000;stroke-linecap:round;stroke-linejoin:round;stroke-miterlimit:10;"/>
				</g>
			</g>
		</g>
	</g>
	<g>
		<g>
			<g>
				<path d="M140.674,268.646&#10;&#9;&#9;&#9;&#9;&#9;c0,2.63-2.977,4.291-2.977,4.291s-2.977-1.662-2.977-4.291c0-2.63,2.977-5.232,2.977-5.232S140.674,266.016,140.674,268.646z" style="fill:#000000;stroke:#000000;stroke-linecap:round;stroke-linejoin:round;stroke-miterlimit:10;"/>
				<path d="M134.72,277.141&#10;&#9;&#9;&#9;&#9;&#9;c0-2.63,2.977-4.291,2.977-4.291s2.977,1.662,2.977,4.291c0,2.63-2.977,5.232-2.977,5.232S134.72,279.771,134.72,277.141z" style="fill:#000000;stroke:#000000;stroke-linecap:round;stroke-linejoin:round;stroke-miterlimit:10;"/>
			</g>
			<g>
				<path d="M133.45,269.917&#10;&#9;&#9;&#9;&#9;&#9;c2.63,0,4.291,2.977,4.291,2.977s-1.662,2.977-4.291,2.977c-2.63,0-5.232-2.977-5.232-2.977S130.82,269.917,133.45,269.917z" style="fill:#000000;stroke:#000000;stroke-linecap:round;stroke-linejoin:round;stroke-miterlimit:10;"/>
				<path d="M141.945,275.87&#10;&#9;&#9;&#9;&#9;&#9;c-2.63,0-4.291-2.977-4.291-2.977s1.661-2.977,4.291-2.977s5.232,2.977,5.232,2.977S144.574,275.87,141.945,275.87z" style="fill:#000000;stroke:#000000;stroke-linecap:round;stroke-linejoin:round;stroke-miterlimit:10;"/>
			</g>
		</g>
		<g>
			<g>
				
					<line y2="272.894" x2="44.956" y1="272.894" x1="117.644" style="fill:#000000;stroke:#000000;stroke-linecap:round;stroke-linejoin:round;stroke-miterlimit:10;"/>
				<path d="M41.096,272.894c0,1.491-1.209,2.699-2.7,2.699c-1.491,0-2.7-1.209-2.7-2.699s1.209-2.7,2.7-2.7&#10;&#9;&#9;&#9;&#9;&#9;C39.887,270.194,41.096,271.403,41.096,272.894z" style="fill:#000000;"/>
			</g>
			<g>
				
					<line y2="272.894" x2="229.437" y1="272.894" x1="157.75" style="fill:#000000;stroke:#000000;stroke-linecap:round;stroke-linejoin:round;stroke-miterlimit:10;"/>
				<path d="M233.297,272.894c0,1.491,1.209,2.699,2.7,2.699c1.491,0,2.699-1.209,2.699-2.699&#10;&#9;&#9;&#9;&#9;&#9;s-1.209-2.7-2.699-2.7C234.506,270.194,233.297,271.403,233.297,272.894z" style="fill:#000000;"/>
			</g>
		</g>
		<g>
			<path d="M124.8,272.894c0,0.895-0.725,1.62-1.62,1.62c-0.895,0-1.62-0.725-1.62-1.62&#10;&#9;&#9;&#9;&#9;c0-0.895,0.725-1.62,1.62-1.62C124.074,271.274,124.8,271.999,124.8,272.894z" style="fill:#000000;"/>
			<path d="M153.834,272.894c0,0.895-0.725,1.62-1.62,1.62c-0.895,0-1.62-0.725-1.62-1.62&#10;&#9;&#9;&#9;&#9;c0-0.895,0.725-1.62,1.62-1.62C153.109,271.274,153.834,271.999,153.834,272.894z" style="fill:#000000;"/>
		</g>
		<g>
			<g>
				<g>
					<path d="M128.28,279.082c0,0-2.513-0.306-3.83,0.764c-1.317,1.07-0.94,3.112-0.94,3.112&#10;&#9;&#9;&#9;&#9;&#9;&#9;s2.513,0.306,3.83-0.764C128.657,281.124,128.28,279.082,128.28,279.082z" style="fill:#000000;"/>
				</g>
				<g>
					<path d="M123.51,262.83c0,0,2.513-0.307,3.83,0.764c1.317,1.07,0.94,3.112,0.94,3.112&#10;&#9;&#9;&#9;&#9;&#9;&#9;s-2.513,0.306-3.83-0.764C123.133,264.871,123.51,262.83,123.51,262.83z" style="fill:#000000;"/>
				</g>
			</g>
			<g>
				<g>
					<path d="M147.114,279.082c0,0,2.513-0.306,3.83,0.764c1.317,1.07,0.94,3.112,0.94,3.112&#10;&#9;&#9;&#9;&#9;&#9;&#9;s-2.513,0.306-3.83-0.764C146.737,281.124,147.114,279.082,147.114,279.082z" style="fill:#000000;"/>
				</g>
				<g>
					<path d="M151.884,262.83c0,0-2.513-0.307-3.83,0.764c-1.317,1.07-0.94,3.112-0.94,3.112&#10;&#9;&#9;&#9;&#9;&#9;&#9;s2.513,0.306,3.83-0.764C152.261,264.871,151.884,262.83,151.884,262.83z" style="fill:#000000;"/>
				</g>
			</g>
		</g>
	</g>
	<polygon points="369.758,268.651 365.802,272.894 369.758,277.136 373.713,272.894" style="fill:#000000;stroke:#000000;stroke-linecap:round;stroke-linejoin:round;stroke-miterlimit:10;"/>
	<polygon points="369.758,271.505 368.463,272.894 369.758,274.282 371.052,272.894" style="fill:#000000;"/>
	<path d="M454.135,279.682&#10;&#9;&#9;c0.111,0.966,0.942,1.655,1.856,1.537c1.236-0.159,2.116-1.347,1.966-2.654c-0.203-1.767-1.358-2.812-3.394-2.811l-78.886,0.023" style="fill:#000000;stroke:#000000;stroke-linecap:round;stroke-linejoin:round;stroke-miterlimit:10;"/>
	<path d="M284.38,279.682&#10;&#9;&#9;c-0.111,0.966-0.942,1.655-1.856,1.537c-1.236-0.159-2.116-1.347-1.966-2.654c0.203-1.767,1.358-2.812,3.394-2.811l79.887,0.023" style="fill:#000000;stroke:#000000;stroke-linecap:round;stroke-linejoin:round;stroke-miterlimit:10;"/>
	<path d="M454.135,266.105&#10;&#9;&#9;c0.111-0.966,0.942-1.654,1.856-1.537c1.236,0.159,2.116,1.347,1.966,2.654c-0.203,1.767-1.358,2.812-3.394,2.811l-78.886-0.023" style="fill:#000000;stroke:#000000;stroke-linecap:round;stroke-linejoin:round;stroke-miterlimit:10;"/>
	<path d="M284.38,266.105&#10;&#9;&#9;c-0.111-0.966-0.942-1.654-1.856-1.537c-1.236,0.159-2.116,1.347-1.966,2.654c0.203,1.767,1.358,2.812,3.394,2.811l79.887-0.023" style="fill:#000000;stroke:#000000;stroke-linecap:round;stroke-linejoin:round;stroke-miterlimit:10;"/>
	<polyline points="365.68,277.517 369.758,281.89 373.835,277.517" style="fill:#000000;stroke:#000000;stroke-linecap:round;stroke-linejoin:round;stroke-miterlimit:10;"/>
	<polyline points="365.68,268.271 369.758,263.898 373.835,268.271" style="fill:#000000;stroke:#000000;stroke-linecap:round;stroke-linejoin:round;stroke-miterlimit:10;"/>
	<g>
		<path d="M142.671,406.033&#10;&#9;&#9;&#9;c-0.255-0.621-0.965-0.918-1.586-0.663c-0.84,0.345-1.241,1.305-0.897,2.145c0.466,1.136,1.469,1.607,2.9,1.213l24.78-7.392&#10;&#9;&#9;&#9;c2.973-0.819,5.055,0.16,6.023,2.518c0.715,1.744-0.118,3.738-1.862,4.453c-1.29,0.529-2.764-0.087-3.293-1.377&#10;&#9;&#9;&#9;c-0.391-0.954,0.065-2.044,1.018-2.435" style="fill:#000000;stroke:#000000;stroke-linecap:round;stroke-linejoin:round;stroke-miterlimit:10;"/>
		<path d="M131.722,406.033&#10;&#9;&#9;&#9;c0.255-0.621,0.965-0.918,1.586-0.663c0.84,0.345,1.241,1.305,0.897,2.145c-0.466,1.136-1.469,1.607-2.9,1.213l-24.78-7.392&#10;&#9;&#9;&#9;c-2.973-0.819-5.055,0.16-6.023,2.518c-0.715,1.744,0.118,3.738,1.862,4.453c1.29,0.529,2.764-0.087,3.293-1.377&#10;&#9;&#9;&#9;c0.391-0.954-0.065-2.044-1.018-2.435" style="fill:#000000;stroke:#000000;stroke-linecap:round;stroke-linejoin:round;stroke-miterlimit:10;"/>
		<path d="M160.756,403.623&#10;&#9;&#9;&#9;l-4.132,6.817c-1.21,1.932-2.835,2.44-4.541,1.639c-1.262-0.593-1.804-2.096-1.212-3.358c0.438-0.933,1.55-1.334,2.483-0.896&#10;&#9;&#9;&#9;c0.69,0.324,0.987,1.146,0.663,1.836" style="fill:#000000;stroke:#000000;stroke-linecap:round;stroke-linejoin:round;stroke-miterlimit:10;"/>
		<path d="M113.637,403.623&#10;&#9;&#9;&#9;l4.132,6.817c1.211,1.932,2.834,2.44,4.541,1.639c1.262-0.593,1.804-2.096,1.212-3.358c-0.438-0.933-1.55-1.334-2.483-0.896&#10;&#9;&#9;&#9;c-0.69,0.324-0.986,1.146-0.662,1.836" style="fill:#000000;stroke:#000000;stroke-linecap:round;stroke-linejoin:round;stroke-miterlimit:10;"/>
		<path d="M162.47,412.962&#10;&#9;&#9;&#9;c0.26-0.633,0.983-0.936,1.617-0.676c0.856,0.351,1.266,1.33,0.914,2.187c-0.475,1.158-1.498,1.638-2.957,1.236l-16.287-5.381&#10;&#9;&#9;&#9;c-3.031-0.835-5.154,0.163-6.141,2.568c-0.73,1.778,0.12,3.811,1.899,4.541c1.315,0.539,2.818-0.089,3.358-1.404&#10;&#9;&#9;&#9;c0.399-0.972-0.066-2.084-1.038-2.483" style="fill:#000000;stroke:#000000;stroke-linecap:round;stroke-linejoin:round;stroke-miterlimit:10;"/>
		<path d="M111.923,412.962&#10;&#9;&#9;&#9;c-0.26-0.633-0.984-0.936-1.617-0.676c-0.856,0.351-1.266,1.33-0.914,2.187c0.475,1.158,1.498,1.638,2.957,1.236l16.287-5.381&#10;&#9;&#9;&#9;c3.031-0.835,5.154,0.163,6.141,2.568c0.73,1.778-0.121,3.811-1.899,4.541c-1.315,0.539-2.818-0.089-3.358-1.404&#10;&#9;&#9;&#9;c-0.399-0.972,0.066-2.084,1.038-2.483" style="fill:#000000;stroke:#000000;stroke-linecap:round;stroke-linejoin:round;stroke-miterlimit:10;"/>
		<polygon points="137.197,408.004 135.758,409.631 137.197,411.257 138.635,409.631" style="fill:#000000;"/>
		<g>
			<g>
				
					<line y2="404.088" x2="177.861" y1="404.088" x1="227.63" style="fill:#000000;stroke:#000000;stroke-linecap:round;stroke-linejoin:round;stroke-miterlimit:10;"/>
			</g>
			<g>
				
					<line y2="404.088" x2="46.763" y1="404.088" x1="96.532" style="fill:#000000;stroke:#000000;stroke-linecap:round;stroke-linejoin:round;stroke-miterlimit:10;"/>
			</g>
		</g>
		<g>
			<g>
				
					<line y2="405.731" x2="44.161" y1="402.445" x1="44.161" style="fill:#000000;stroke:#000000;stroke-linecap:round;stroke-linejoin:round;stroke-miterlimit:10;"/>
				
					<line y2="405.731" x2="41.697" y1="402.445" x1="41.697" style="fill:#000000;stroke:#000000;stroke-linecap:round;stroke-linejoin:round;stroke-miterlimit:10;"/>
				
					<rect height="2.828" width="2.828" style="fill:#000000;" transform="matrix(0.7071 -0.7071 0.7071 0.7071 -274.6154 145.2434)" y="402.674" x="36.59"/>
			</g>
			<g>
				
					<line y2="405.731" x2="230.232" y1="402.445" x1="230.232" style="fill:#000000;stroke:#000000;stroke-linecap:round;stroke-linejoin:round;stroke-miterlimit:10;"/>
				
					<line y2="405.731" x2="232.697" y1="402.445" x1="232.697" style="fill:#000000;stroke:#000000;stroke-linecap:round;stroke-linejoin:round;stroke-miterlimit:10;"/>
				
					<rect height="2.828" width="2.828" style="fill:#000000;" transform="matrix(0.7071 -0.7071 0.7071 0.7071 -216.4939 285.4958)" y="402.674" x="234.975"/>
			</g>
		</g>
	</g>
	<g>
		<polygon points="369.257,397.626 367.301,399.724 369.257,401.823 371.214,399.724" style="fill:#000000;"/>
		<g>
			<polygon points="369.257,403.429 368.359,404.393 369.257,405.356 370.156,404.393" style="fill:#000000;"/>
			<polygon points="369.257,406.974 368.359,407.938 369.257,408.901 370.156,407.938" style="fill:#000000;"/>
		</g>
		<g>
			<path d="M380.235,410.324&#10;&#9;&#9;&#9;&#9;c-0.244,0.516-0.861,0.737-1.377,0.493c-0.698-0.33-0.997-1.164-0.667-1.862c0.446-0.944,1.319-1.3,2.518-0.902l12.394,4.692&#10;&#9;&#9;&#9;&#9;c2.49,0.828,4.303,0.088,5.23-1.873c0.685-1.45,0.065-3.182-1.385-3.867c-1.073-0.507-2.353-0.048-2.86,1.024&#10;&#9;&#9;&#9;&#9;c-0.375,0.793-0.036,1.74,0.758,2.115" style="fill:#000000;stroke:#000000;stroke-linecap:round;stroke-linejoin:round;stroke-miterlimit:10;"/>
			<path d="M358.279,410.324&#10;&#9;&#9;&#9;&#9;c0.244,0.516,0.861,0.737,1.377,0.493c0.699-0.33,0.997-1.164,0.667-1.862c-0.446-0.944-1.319-1.3-2.518-0.902l-12.394,4.692&#10;&#9;&#9;&#9;&#9;c-2.49,0.828-4.303,0.088-5.23-1.873c-0.685-1.45-0.065-3.182,1.385-3.867c1.073-0.507,2.353-0.048,2.86,1.024&#10;&#9;&#9;&#9;&#9;c0.375,0.793,0.036,1.74-0.757,2.115" style="fill:#000000;stroke:#000000;stroke-linecap:round;stroke-linejoin:round;stroke-miterlimit:10;"/>
		</g>
		<g>
			<path d="M357.872,404.31&#10;&#9;&#9;&#9;&#9;l4.882,2.406c1.655,0.733,2.949,0.346,3.716-0.94c0.567-0.951,0.255-2.181-0.695-2.748c-0.703-0.419-1.613-0.189-2.032,0.514&#10;&#9;&#9;&#9;&#9;c-0.31,0.52-0.14,1.192,0.38,1.502" style="fill:#000000;stroke:#000000;stroke-linecap:round;stroke-linejoin:round;stroke-miterlimit:10;"/>
			<path d="M380.817,404.31&#10;&#9;&#9;&#9;&#9;l-4.882,2.406c-1.655,0.733-2.949,0.346-3.716-0.94c-0.567-0.951-0.256-2.181,0.695-2.748c0.703-0.419,1.613-0.189,2.032,0.514&#10;&#9;&#9;&#9;&#9;c0.31,0.52,0.14,1.192-0.38,1.502" style="fill:#000000;stroke:#000000;stroke-linecap:round;stroke-linejoin:round;stroke-miterlimit:10;"/>
			<g>
				<g>
					
						<line y2="404.13" x2="384.804" y1="404.13" x1="454.834" style="fill:#000000;stroke:#000000;stroke-linecap:round;stroke-linejoin:round;stroke-miterlimit:10;"/>
					<polygon points="460.718,406.805 463.458,404.13 460.718,401.456 457.979,404.13" style="fill:#000000;stroke:#000000;stroke-linecap:round;stroke-linejoin:round;stroke-miterlimit:10;"/>
				</g>
			</g>
			<g>
				<g>
					
						<line y2="402.304" x2="382.753" y1="405.688" x1="386.137" style="fill:#000000;stroke:#000000;stroke-linecap:round;stroke-linejoin:round;stroke-miterlimit:10;"/>
					
						<line y2="402.304" x2="379.126" y1="405.688" x1="382.509" style="fill:#000000;stroke:#000000;stroke-linecap:round;stroke-linejoin:round;stroke-miterlimit:10;"/>
				</g>
			</g>
			<g>
				
					<line y2="404.13" x2="353.711" y1="404.13" x1="283.68" style="fill:#000000;stroke:#000000;stroke-linecap:round;stroke-linejoin:round;stroke-miterlimit:10;"/>
				<polygon points="277.796,406.805 275.056,404.13 277.796,401.456 280.536,404.13" style="fill:#000000;stroke:#000000;stroke-linecap:round;stroke-linejoin:round;stroke-miterlimit:10;"/>
			</g>
			<g>
				
					<line y2="402.304" x2="355.761" y1="405.688" x1="352.378" style="fill:#000000;stroke:#000000;stroke-linecap:round;stroke-linejoin:round;stroke-miterlimit:10;"/>
				
					<line y2="402.304" x2="359.389" y1="405.688" x1="356.005" style="fill:#000000;stroke:#000000;stroke-linecap:round;stroke-linejoin:round;stroke-miterlimit:10;"/>
			</g>
		</g>
		<polyline points="362.903,409.862 369.257,416.216 375.611,409.862" style="fill:#000000;stroke:#000000;stroke-linecap:round;stroke-linejoin:round;stroke-miterlimit:10;"/>
		<polyline points="366.33,409.196 369.257,412.123 372.184,409.196" style="fill:#000000;stroke:#000000;stroke-linecap:round;stroke-linejoin:round;stroke-miterlimit:10;"/>
	</g>
</g>
<g id="DESIGNED_BY_FREEPIK">
	<g id="XMLID_76_">
		<g id="XMLID_929_">
			<path d="M181.087,472.134c-0.246,0-0.435,0.085-0.567,0.255&#10;&#9;&#9;&#9;&#9;c-0.133,0.17-0.199,0.421-0.199,0.753v2.392c-0.305-0.331-0.617-0.579-0.937-0.739c-0.321-0.159-0.715-0.24-1.182-0.24&#10;&#9;&#9;&#9;&#9;c-0.807,0-1.458,0.283-1.953,0.848c-0.494,0.566-0.742,1.356-0.742,2.369c0,0.478,0.063,0.923,0.187,1.335&#10;&#9;&#9;&#9;&#9;c0.124,0.412,0.307,0.77,0.549,1.074c0.241,0.305,0.527,0.539,0.857,0.703c0.33,0.164,0.689,0.246,1.078,0.246&#10;&#9;&#9;&#9;&#9;c0.293,0,0.563-0.04,0.809-0.122c0.248-0.08,0.477-0.199,0.689-0.356c0.212-0.156,0.427-0.359,0.644-0.608v0.16&#10;&#9;&#9;&#9;&#9;c0,0.297,0.072,0.525,0.217,0.685c0.145,0.161,0.328,0.24,0.549,0.24c0.226,0,0.409-0.077,0.552-0.231&#10;&#9;&#9;&#9;&#9;c0.143-0.154,0.214-0.386,0.214-0.694v-7.146c0-0.305-0.066-0.534-0.199-0.691C181.521,472.212,181.332,472.134,181.087,472.134z&#10;&#9;&#9;&#9;&#9; M180.021,478.974c-0.14,0.306-0.328,0.533-0.563,0.682c-0.236,0.149-0.496,0.223-0.781,0.223c-0.281,0-0.539-0.079-0.777-0.236&#10;&#9;&#9;&#9;&#9;c-0.237-0.155-0.424-0.387-0.561-0.696c-0.136-0.309-0.204-0.682-0.204-1.122c0-0.415,0.063-0.78,0.193-1.095&#10;&#9;&#9;&#9;&#9;c0.128-0.315,0.309-0.556,0.543-0.724c0.233-0.168,0.499-0.253,0.795-0.253c0.285,0,0.547,0.082,0.786,0.246&#10;&#9;&#9;&#9;&#9;c0.239,0.165,0.429,0.402,0.569,0.712c0.141,0.311,0.21,0.682,0.21,1.114C180.232,478.284,180.162,478.667,180.021,478.974z" style="fill:#000000;" id="XMLID_958_"/>
			<path d="M188.452,478.054c0.233-0.122,0.35-0.385,0.35-0.793&#10;&#9;&#9;&#9;&#9;c0-0.438-0.114-0.87-0.339-1.294c-0.225-0.423-0.564-0.769-1.018-1.035c-0.453-0.268-0.996-0.4-1.628-0.4&#10;&#9;&#9;&#9;&#9;c-0.487,0-0.93,0.078-1.33,0.234c-0.4,0.157-0.737,0.381-1.009,0.674c-0.273,0.293-0.48,0.644-0.623,1.054&#10;&#9;&#9;&#9;&#9;c-0.143,0.409-0.214,0.853-0.214,1.332c0,1.017,0.289,1.822,0.867,2.415c0.577,0.592,1.387,0.89,2.427,0.89&#10;&#9;&#9;&#9;&#9;c0.455,0,0.858-0.059,1.207-0.178c0.352-0.12,0.641-0.268,0.873-0.448c0.231-0.18,0.404-0.368,0.519-0.564&#10;&#9;&#9;&#9;&#9;c0.115-0.197,0.172-0.367,0.172-0.514c0-0.166-0.052-0.294-0.155-0.386c-0.102-0.09-0.237-0.137-0.403-0.137&#10;&#9;&#9;&#9;&#9;c-0.154,0-0.273,0.035-0.356,0.107c-0.203,0.19-0.366,0.34-0.493,0.452c-0.126,0.111-0.265,0.215-0.415,0.312&#10;&#9;&#9;&#9;&#9;c-0.15,0.098-0.305,0.167-0.466,0.214c-0.16,0.045-0.337,0.067-0.531,0.067c-0.289,0-0.553-0.07-0.792-0.213&#10;&#9;&#9;&#9;&#9;c-0.239-0.142-0.432-0.354-0.576-0.635c-0.145-0.281-0.219-0.605-0.222-0.973h3.168&#10;&#9;&#9;&#9;&#9;C187.89,478.235,188.219,478.174,188.452,478.054z M184.297,477.315c0.056-0.546,0.212-0.959,0.472-1.238&#10;&#9;&#9;&#9;&#9;c0.259-0.28,0.59-0.418,0.994-0.418c0.423,0,0.764,0.137,1.024,0.412c0.259,0.275,0.409,0.69,0.448,1.244H184.297z" style="fill:#000000;" id="XMLID_954_"/>
			<path d="M193.879,477.617c-0.319-0.17-0.729-0.316-1.231-0.439&#10;&#9;&#9;&#9;&#9;c-0.425-0.103-0.756-0.19-0.997-0.261c-0.242-0.07-0.434-0.16-0.577-0.27c-0.142-0.109-0.213-0.248-0.213-0.419&#10;&#9;&#9;&#9;&#9;c0-0.186,0.096-0.341,0.29-0.465c0.194-0.126,0.437-0.187,0.73-0.187c0.286,0,0.511,0.047,0.677,0.142&#10;&#9;&#9;&#9;&#9;c0.166,0.095,0.31,0.222,0.433,0.38c0.151,0.19,0.284,0.332,0.401,0.427c0.116,0.095,0.258,0.143,0.423,0.143&#10;&#9;&#9;&#9;&#9;c0.231,0,0.408-0.06,0.532-0.178c0.124-0.119,0.186-0.271,0.186-0.457c0-0.171-0.058-0.345-0.175-0.523&#10;&#9;&#9;&#9;&#9;c-0.116-0.178-0.286-0.34-0.51-0.486c-0.223-0.146-0.502-0.264-0.837-0.35c-0.333-0.088-0.71-0.131-1.13-0.131&#10;&#9;&#9;&#9;&#9;c-0.535,0-0.99,0.085-1.367,0.259c-0.378,0.172-0.665,0.403-0.859,0.691c-0.194,0.289-0.291,0.596-0.291,0.92&#10;&#9;&#9;&#9;&#9;c0,0.364,0.105,0.671,0.315,0.92c0.21,0.249,0.489,0.45,0.84,0.602c0.35,0.152,0.804,0.298,1.362,0.436&#10;&#9;&#9;&#9;&#9;c0.494,0.12,0.849,0.244,1.066,0.375c0.216,0.131,0.323,0.338,0.323,0.622c0,0.187-0.104,0.352-0.311,0.497&#10;&#9;&#9;&#9;&#9;c-0.208,0.144-0.474,0.216-0.798,0.216c-0.4,0-0.715-0.071-0.947-0.213c-0.231-0.143-0.431-0.358-0.597-0.647&#10;&#9;&#9;&#9;&#9;c-0.082-0.15-0.17-0.267-0.261-0.35c-0.091-0.082-0.221-0.124-0.391-0.124c-0.194,0-0.355,0.064-0.481,0.19&#10;&#9;&#9;&#9;&#9;c-0.128,0.126-0.19,0.278-0.19,0.456c0,0.27,0.099,0.537,0.297,0.805c0.198,0.266,0.505,0.489,0.92,0.667&#10;&#9;&#9;&#9;&#9;c0.415,0.178,0.914,0.267,1.495,0.267c0.61,0,1.127-0.082,1.552-0.246c0.425-0.164,0.747-0.406,0.964-0.724&#10;&#9;&#9;&#9;&#9;c0.218-0.319,0.327-0.702,0.327-1.149c0-0.297-0.082-0.56-0.246-0.791C194.438,477.988,194.196,477.787,193.879,477.617z" style="fill:#000000;" id="XMLID_952_"/>
			<path d="M196.486,474.543c-0.237,0-0.43,0.081-0.578,0.243&#10;&#9;&#9;&#9;&#9;c-0.149,0.162-0.222,0.404-0.222,0.724v4.635c0,0.317,0.073,0.56,0.222,0.73c0.148,0.17,0.341,0.255,0.578,0.255&#10;&#9;&#9;&#9;&#9;c0.238,0,0.433-0.083,0.588-0.249c0.154-0.166,0.231-0.412,0.231-0.737v-4.682c0-0.289-0.077-0.514-0.231-0.677&#10;&#9;&#9;&#9;&#9;C196.919,474.624,196.724,474.543,196.486,474.543z" style="fill:#000000;" id="XMLID_950_"/>
			<path d="M196.504,472.204c-0.217,0-0.409,0.073-0.573,0.223&#10;&#9;&#9;&#9;&#9;c-0.164,0.149-0.246,0.337-0.246,0.567c0,0.254,0.08,0.45,0.24,0.588c0.16,0.139,0.353,0.208,0.579,0.208&#10;&#9;&#9;&#9;&#9;c0.217,0,0.405-0.071,0.563-0.211c0.158-0.14,0.238-0.335,0.238-0.585c0-0.257-0.081-0.453-0.243-0.588&#10;&#9;&#9;&#9;&#9;C196.9,472.272,196.714,472.204,196.504,472.204z" style="fill:#000000;" id="XMLID_949_"/>
			<path d="M203.626,474.543c-0.217,0-0.395,0.078-0.535,0.231&#10;&#9;&#9;&#9;&#9;c-0.139,0.155-0.208,0.372-0.208,0.653v0.22c-0.289-0.376-0.602-0.652-0.937-0.829c-0.337-0.175-0.735-0.264-1.194-0.264&#10;&#9;&#9;&#9;&#9;c-0.384,0-0.736,0.068-1.056,0.204c-0.32,0.137-0.604,0.34-0.849,0.609c-0.245,0.268-0.433,0.599-0.566,0.992&#10;&#9;&#9;&#9;&#9;c-0.133,0.391-0.199,0.831-0.199,1.318c0,0.653,0.109,1.228,0.327,1.727c0.217,0.499,0.529,0.886,0.934,1.163&#10;&#9;&#9;&#9;&#9;c0.407,0.277,0.88,0.416,1.422,0.416c0.45,0,0.84-0.091,1.165-0.273c0.327-0.182,0.615-0.447,0.864-0.796&#10;&#9;&#9;&#9;&#9;c-0.008,0.531-0.02,0.915-0.035,1.155c-0.016,0.24-0.07,0.464-0.163,0.673c-0.093,0.21-0.255,0.374-0.486,0.49&#10;&#9;&#9;&#9;&#9;c-0.231,0.117-0.557,0.175-0.977,0.175c-0.205,0-0.388-0.02-0.546-0.056c-0.159-0.038-0.294-0.095-0.406-0.172&#10;&#9;&#9;&#9;&#9;c-0.112-0.078-0.216-0.17-0.309-0.279c-0.093-0.109-0.183-0.217-0.27-0.324c-0.178-0.209-0.386-0.314-0.624-0.314&#10;&#9;&#9;&#9;&#9;c-0.189,0-0.352,0.062-0.486,0.187c-0.135,0.124-0.202,0.285-0.202,0.483c0,0.262,0.119,0.516,0.356,0.763&#10;&#9;&#9;&#9;&#9;c0.238,0.247,0.576,0.449,1.014,0.605c0.439,0.156,0.938,0.234,1.496,0.234c0.609,0,1.119-0.061,1.528-0.184&#10;&#9;&#9;&#9;&#9;c0.409-0.122,0.741-0.311,0.994-0.563c0.253-0.254,0.437-0.574,0.552-0.961c0.115-0.389,0.173-0.851,0.173-1.389v-4.706&#10;&#9;&#9;&#9;&#9;c0-0.384-0.051-0.678-0.155-0.882C204.146,474.645,203.938,474.543,203.626,474.543z M202.599,478.908&#10;&#9;&#9;&#9;&#9;c-0.151,0.291-0.345,0.508-0.586,0.653c-0.239,0.144-0.493,0.217-0.762,0.217c-0.455,0-0.826-0.168-1.113-0.505&#10;&#9;&#9;&#9;&#9;c-0.287-0.336-0.43-0.834-0.43-1.49c0-0.649,0.139-1.15,0.418-1.502s0.649-0.528,1.113-0.528c0.475,0,0.857,0.184,1.148,0.553&#10;&#9;&#9;&#9;&#9;c0.291,0.367,0.436,0.882,0.436,1.543C202.825,478.265,202.749,478.617,202.599,478.908z" style="fill:#000000;" id="XMLID_945_"/>
			<path d="M210.978,475.611c-0.165-0.339-0.417-0.602-0.753-0.788&#10;&#9;&#9;&#9;&#9;c-0.337-0.186-0.718-0.28-1.146-0.28c-0.439,0-0.827,0.088-1.166,0.264c-0.339,0.176-0.65,0.452-0.935,0.828v-0.196&#10;&#9;&#9;&#9;&#9;c0-0.193-0.034-0.358-0.104-0.493c-0.07-0.134-0.162-0.234-0.276-0.302c-0.115-0.068-0.244-0.101-0.387-0.101&#10;&#9;&#9;&#9;&#9;c-0.233,0-0.417,0.076-0.552,0.228c-0.134,0.153-0.201,0.383-0.201,0.692v4.682c0,0.317,0.076,0.56,0.226,0.73&#10;&#9;&#9;&#9;&#9;c0.15,0.17,0.342,0.255,0.576,0.255c0.241,0,0.438-0.082,0.59-0.246c0.152-0.164,0.228-0.411,0.228-0.74v-2.03&#10;&#9;&#9;&#9;&#9;c0-0.661,0.04-1.111,0.119-1.353c0.11-0.3,0.284-0.537,0.522-0.71c0.237-0.173,0.5-0.258,0.788-0.258&#10;&#9;&#9;&#9;&#9;c0.444,0,0.74,0.142,0.888,0.425c0.148,0.283,0.223,0.691,0.223,1.225v2.7c0,0.317,0.074,0.56,0.226,0.73&#10;&#9;&#9;&#9;&#9;c0.15,0.17,0.345,0.255,0.587,0.255c0.238,0,0.431-0.083,0.579-0.249c0.149-0.166,0.223-0.412,0.223-0.737v-3.015&#10;&#9;&#9;&#9;&#9;c0-0.356-0.016-0.648-0.048-0.878C211.155,476.023,211.085,475.809,210.978,475.611z" style="fill:#000000;" id="XMLID_944_"/>
			<path d="M217.821,478.054c0.234-0.122,0.35-0.385,0.35-0.793&#10;&#9;&#9;&#9;&#9;c0-0.438-0.113-0.87-0.338-1.294c-0.226-0.423-0.565-0.769-1.019-1.035c-0.453-0.268-0.995-0.4-1.628-0.4&#10;&#9;&#9;&#9;&#9;c-0.487,0-0.93,0.078-1.33,0.234c-0.4,0.157-0.736,0.381-1.009,0.674c-0.273,0.293-0.481,0.644-0.624,1.054&#10;&#9;&#9;&#9;&#9;c-0.142,0.409-0.214,0.853-0.214,1.332c0,1.017,0.289,1.822,0.867,2.415c0.578,0.592,1.387,0.89,2.427,0.89&#10;&#9;&#9;&#9;&#9;c0.455,0,0.858-0.059,1.208-0.178c0.35-0.12,0.64-0.268,0.871-0.448c0.232-0.18,0.405-0.368,0.52-0.564&#10;&#9;&#9;&#9;&#9;c0.115-0.197,0.172-0.367,0.172-0.514c0-0.166-0.051-0.294-0.154-0.386c-0.103-0.09-0.238-0.137-0.404-0.137&#10;&#9;&#9;&#9;&#9;c-0.154,0-0.273,0.035-0.356,0.107c-0.201,0.19-0.366,0.34-0.492,0.452c-0.128,0.111-0.266,0.215-0.416,0.312&#10;&#9;&#9;&#9;&#9;c-0.151,0.098-0.306,0.167-0.466,0.214c-0.161,0.045-0.338,0.067-0.532,0.067c-0.289,0-0.553-0.07-0.792-0.213&#10;&#9;&#9;&#9;&#9;c-0.239-0.142-0.431-0.354-0.575-0.635c-0.145-0.281-0.218-0.605-0.223-0.973h3.169&#10;&#9;&#9;&#9;&#9;C217.26,478.235,217.588,478.174,217.821,478.054z M213.667,477.315c0.055-0.546,0.212-0.959,0.471-1.238&#10;&#9;&#9;&#9;&#9;c0.259-0.28,0.591-0.418,0.995-0.418c0.423,0,0.765,0.137,1.024,0.412c0.259,0.275,0.409,0.69,0.448,1.244H213.667z" style="fill:#000000;" id="XMLID_939_"/>
			<path d="M224.207,472.134c-0.245,0-0.434,0.085-0.567,0.255&#10;&#9;&#9;&#9;&#9;c-0.132,0.17-0.2,0.421-0.2,0.753v2.392c-0.304-0.331-0.616-0.579-0.937-0.739c-0.32-0.159-0.714-0.24-1.181-0.24&#10;&#9;&#9;&#9;&#9;c-0.807,0-1.458,0.283-1.953,0.848c-0.495,0.566-0.741,1.356-0.741,2.369c0,0.478,0.062,0.923,0.187,1.335&#10;&#9;&#9;&#9;&#9;c0.124,0.412,0.307,0.77,0.549,1.074c0.241,0.305,0.527,0.539,0.857,0.703c0.33,0.164,0.689,0.246,1.077,0.246&#10;&#9;&#9;&#9;&#9;c0.293,0,0.563-0.04,0.81-0.122c0.247-0.08,0.476-0.199,0.688-0.356c0.211-0.156,0.426-0.359,0.643-0.608v0.16&#10;&#9;&#9;&#9;&#9;c0,0.297,0.073,0.525,0.217,0.685c0.145,0.161,0.328,0.24,0.549,0.24c0.226,0,0.41-0.077,0.552-0.231&#10;&#9;&#9;&#9;&#9;c0.143-0.154,0.214-0.386,0.214-0.694v-7.146c0-0.305-0.066-0.534-0.199-0.691C224.64,472.212,224.452,472.134,224.207,472.134z&#10;&#9;&#9;&#9;&#9; M223.141,478.974c-0.14,0.306-0.328,0.533-0.564,0.682c-0.235,0.149-0.495,0.223-0.781,0.223c-0.281,0-0.54-0.079-0.776-0.236&#10;&#9;&#9;&#9;&#9;c-0.238-0.155-0.425-0.387-0.561-0.696c-0.137-0.309-0.205-0.682-0.205-1.122c0-0.415,0.064-0.78,0.193-1.095&#10;&#9;&#9;&#9;&#9;c0.129-0.315,0.31-0.556,0.543-0.724c0.233-0.168,0.499-0.253,0.795-0.253c0.285,0,0.547,0.082,0.787,0.246&#10;&#9;&#9;&#9;&#9;c0.239,0.165,0.43,0.402,0.57,0.712c0.14,0.311,0.21,0.682,0.21,1.114C223.352,478.284,223.281,478.667,223.141,478.974z" style="fill:#000000;" id="XMLID_936_"/>
			<path d="M233.586,474.937c-0.406-0.254-0.878-0.382-1.416-0.382&#10;&#9;&#9;&#9;&#9;c-0.467,0-0.859,0.084-1.175,0.252c-0.317,0.168-0.627,0.411-0.932,0.727v-2.475c0-0.297-0.068-0.524-0.202-0.685&#10;&#9;&#9;&#9;&#9;c-0.134-0.16-0.326-0.24-0.576-0.24c-0.237,0-0.423,0.084-0.555,0.252c-0.132,0.168-0.198,0.416-0.198,0.745v7.075&#10;&#9;&#9;&#9;&#9;c0,0.305,0.068,0.535,0.205,0.692c0.136,0.156,0.319,0.234,0.549,0.234c0.226,0,0.412-0.077,0.558-0.234&#10;&#9;&#9;&#9;&#9;c0.146-0.157,0.22-0.388,0.22-0.692v-0.16c0.178,0.205,0.322,0.361,0.43,0.463c0.109,0.103,0.241,0.203,0.395,0.3&#10;&#9;&#9;&#9;&#9;c0.154,0.098,0.341,0.175,0.561,0.234c0.22,0.06,0.454,0.089,0.704,0.089c0.407,0,0.781-0.082,1.118-0.246&#10;&#9;&#9;&#9;&#9;c0.338-0.164,0.626-0.397,0.864-0.698c0.237-0.3,0.418-0.656,0.543-1.065c0.125-0.41,0.187-0.859,0.187-1.35&#10;&#9;&#9;&#9;&#9;c0-0.665-0.112-1.241-0.336-1.725C234.305,475.563,233.991,475.193,233.586,474.937z M232.796,479.348&#10;&#9;&#9;&#9;&#9;c-0.295,0.354-0.646,0.531-1.053,0.531c-0.479,0-0.866-0.174-1.161-0.521c-0.295-0.346-0.442-0.841-0.442-1.487&#10;&#9;&#9;&#9;&#9;c0-0.439,0.069-0.818,0.208-1.136c0.138-0.319,0.328-0.562,0.57-0.73c0.24-0.168,0.516-0.253,0.825-0.253&#10;&#9;&#9;&#9;&#9;c0.3,0,0.564,0.085,0.79,0.253c0.225,0.168,0.399,0.406,0.522,0.715c0.123,0.308,0.184,0.677,0.184,1.104&#10;&#9;&#9;&#9;&#9;C233.238,478.486,233.09,478.993,232.796,479.348z" style="fill:#000000;" id="XMLID_933_"/>
			<path d="M240.529,474.641c-0.112-0.066-0.23-0.098-0.353-0.098&#10;&#9;&#9;&#9;&#9;c-0.171,0-0.303,0.03-0.395,0.09c-0.093,0.058-0.181,0.173-0.264,0.344c-0.083,0.17-0.176,0.406-0.279,0.706l-1.3,3.71&#10;&#9;&#9;&#9;&#9;l-1.371-3.988c-0.091-0.277-0.195-0.489-0.314-0.638c-0.119-0.148-0.295-0.223-0.529-0.223c-0.135,0-0.264,0.035-0.389,0.107&#10;&#9;&#9;&#9;&#9;c-0.124,0.071-0.222,0.166-0.294,0.285c-0.071,0.118-0.107,0.247-0.107,0.385c0,0.13,0.062,0.341,0.184,0.628l1.994,5.022&#10;&#9;&#9;&#9;&#9;l-0.148,0.362c-0.111,0.265-0.209,0.466-0.294,0.601c-0.085,0.138-0.181,0.234-0.288,0.289c-0.107,0.056-0.254,0.084-0.44,0.084&#10;&#9;&#9;&#9;&#9;c-0.074,0-0.163-0.012-0.266-0.035c-0.083-0.024-0.168-0.037-0.256-0.037c-0.221,0-0.388,0.051-0.5,0.152&#10;&#9;&#9;&#9;&#9;c-0.114,0.101-0.17,0.245-0.17,0.43c0,0.273,0.118,0.461,0.356,0.564c0.237,0.103,0.593,0.154,1.068,0.154&#10;&#9;&#9;&#9;&#9;c0.487,0,0.873-0.074,1.161-0.223c0.287-0.148,0.517-0.361,0.691-0.638c0.174-0.277,0.353-0.658,0.535-1.145l2.113-5.532&#10;&#9;&#9;&#9;&#9;c0.051-0.142,0.095-0.283,0.13-0.421c0.037-0.139,0.061-0.246,0.078-0.321c0-0.123-0.032-0.239-0.093-0.35&#10;&#9;&#9;&#9;&#9;C240.729,474.794,240.642,474.706,240.529,474.641z" style="fill:#000000;" id="XMLID_931_"/>
		</g>
		<g id="XMLID_365_">
			<g id="XMLID_380_">
				<path d="M262.93,472.129c-0.533,0-0.954,0.069-1.26,0.204&#10;&#9;&#9;&#9;&#9;&#9;c-0.307,0.137-0.527,0.354-0.654,0.652c-0.129,0.301-0.191,0.702-0.191,1.211v0.487h-0.387c-0.543,0-0.815,0.192-0.815,0.582&#10;&#9;&#9;&#9;&#9;&#9;c0,0.174,0.066,0.316,0.196,0.424c0.132,0.111,0.316,0.163,0.558,0.163h0.447v4.294c0,0.319,0.074,0.563,0.227,0.73&#10;&#9;&#9;&#9;&#9;&#9;c0.154,0.17,0.344,0.254,0.574,0.254c0.243,0,0.438-0.084,0.589-0.254c0.156-0.167,0.231-0.411,0.231-0.73v-4.294h0.395&#10;&#9;&#9;&#9;&#9;&#9;c0.29,0,0.517-0.035,0.68-0.107c0.166-0.071,0.245-0.24,0.245-0.502c0-0.374-0.306-0.56-0.926-0.56h-0.395v-0.386&#10;&#9;&#9;&#9;&#9;&#9;c0-0.322,0.043-0.568,0.122-0.74c0.087-0.172,0.273-0.259,0.566-0.259c0.107,0,0.241,0.014,0.389,0.034&#10;&#9;&#9;&#9;&#9;&#9;c0.156,0.026,0.267,0.038,0.33,0.038c0.134,0,0.252-0.054,0.348-0.16c0.101-0.107,0.15-0.236,0.15-0.384&#10;&#9;&#9;&#9;&#9;&#9;C264.35,472.359,263.879,472.129,262.93,472.129z" style="fill:#000000;" id="XMLID_928_"/>
				<path d="M268.089,474.795c-0.32-0.171-0.648-0.255-0.99-0.255&#10;&#9;&#9;&#9;&#9;&#9;c-0.342,0-0.611,0.084-0.818,0.255c-0.203,0.171-0.4,0.421-0.592,0.755c-0.014-0.334-0.08-0.584-0.198-0.755&#10;&#9;&#9;&#9;&#9;&#9;c-0.119-0.171-0.312-0.255-0.583-0.255c-0.525,0-0.788,0.364-0.788,1.093v4.513c0,0.323,0.078,0.569,0.225,0.733&#10;&#9;&#9;&#9;&#9;&#9;c0.15,0.169,0.34,0.25,0.579,0.25c0.237,0,0.432-0.081,0.586-0.247c0.151-0.163,0.234-0.41,0.234-0.737v-1.355&#10;&#9;&#9;&#9;&#9;&#9;c0-0.486,0.014-0.899,0.045-1.239c0.034-0.336,0.09-0.63,0.17-0.878c0.084-0.243,0.201-0.425,0.353-0.553&#10;&#9;&#9;&#9;&#9;&#9;c0.149-0.122,0.345-0.186,0.582-0.186c0.172,0,0.374,0.037,0.602,0.108c0.226,0.073,0.37,0.112,0.433,0.112&#10;&#9;&#9;&#9;&#9;&#9;c0.157,0,0.304-0.064,0.441-0.195c0.135-0.126,0.204-0.292,0.204-0.488C268.571,475.193,268.411,474.966,268.089,474.795z" style="fill:#000000;" id="XMLID_926_"/>
				<path d="M274.176,478.052c0.233-0.122,0.351-0.386,0.351-0.791&#10;&#9;&#9;&#9;&#9;&#9;c0-0.441-0.113-0.87-0.339-1.296c-0.222-0.423-0.566-0.77-1.018-1.034c-0.453-0.27-0.997-0.403-1.629-0.403&#10;&#9;&#9;&#9;&#9;&#9;c-0.488,0-0.931,0.078-1.33,0.233c-0.402,0.156-0.735,0.38-1.007,0.674c-0.276,0.295-0.484,0.643-0.624,1.055&#10;&#9;&#9;&#9;&#9;&#9;c-0.144,0.41-0.217,0.855-0.217,1.333c0,1.017,0.292,1.823,0.87,2.418c0.577,0.593,1.385,0.888,2.429,0.888&#10;&#9;&#9;&#9;&#9;&#9;c0.453,0,0.857-0.06,1.207-0.179c0.349-0.117,0.639-0.268,0.874-0.446c0.233-0.182,0.405-0.368,0.522-0.566&#10;&#9;&#9;&#9;&#9;&#9;c0.112-0.195,0.167-0.365,0.167-0.512c0-0.167-0.048-0.294-0.152-0.386c-0.105-0.092-0.238-0.139-0.406-0.139&#10;&#9;&#9;&#9;&#9;&#9;c-0.152,0-0.271,0.038-0.355,0.109c-0.202,0.189-0.367,0.34-0.494,0.449c-0.128,0.113-0.264,0.217-0.415,0.312&#10;&#9;&#9;&#9;&#9;&#9;c-0.15,0.097-0.307,0.17-0.466,0.213c-0.16,0.048-0.336,0.069-0.531,0.069c-0.29,0-0.552-0.07-0.793-0.212&#10;&#9;&#9;&#9;&#9;&#9;c-0.24-0.145-0.431-0.356-0.578-0.635c-0.144-0.281-0.216-0.607-0.221-0.974h3.171&#10;&#9;&#9;&#9;&#9;&#9;C273.615,478.233,273.943,478.173,274.176,478.052z M270.021,477.312c0.054-0.546,0.213-0.957,0.472-1.236&#10;&#9;&#9;&#9;&#9;&#9;c0.259-0.28,0.591-0.417,0.995-0.417c0.426,0,0.764,0.136,1.025,0.413c0.26,0.273,0.407,0.688,0.446,1.241H270.021z" style="fill:#000000;" id="XMLID_922_"/>
				<path d="M280.916,478.052c0.231-0.122,0.351-0.386,0.351-0.791&#10;&#9;&#9;&#9;&#9;&#9;c0-0.441-0.116-0.87-0.34-1.296c-0.222-0.423-0.563-0.77-1.013-1.034c-0.46-0.27-1.003-0.403-1.633-0.403&#10;&#9;&#9;&#9;&#9;&#9;c-0.486,0-0.932,0.078-1.33,0.233c-0.401,0.156-0.736,0.38-1.009,0.674c-0.273,0.295-0.481,0.643-0.622,1.055&#10;&#9;&#9;&#9;&#9;&#9;c-0.145,0.41-0.217,0.855-0.217,1.333c0,1.017,0.29,1.823,0.868,2.418c0.58,0.593,1.387,0.888,2.429,0.888&#10;&#9;&#9;&#9;&#9;&#9;c0.453,0,0.86-0.06,1.208-0.179c0.347-0.117,0.641-0.268,0.872-0.446c0.234-0.182,0.408-0.368,0.519-0.566&#10;&#9;&#9;&#9;&#9;&#9;c0.117-0.195,0.171-0.365,0.171-0.512c0-0.167-0.047-0.294-0.15-0.386c-0.104-0.092-0.238-0.139-0.406-0.139&#10;&#9;&#9;&#9;&#9;&#9;c-0.151,0-0.27,0.038-0.355,0.109c-0.203,0.189-0.368,0.34-0.492,0.449c-0.128,0.113-0.264,0.217-0.415,0.312&#10;&#9;&#9;&#9;&#9;&#9;c-0.152,0.097-0.307,0.17-0.469,0.213c-0.157,0.048-0.336,0.069-0.528,0.069c-0.291,0-0.555-0.07-0.795-0.212&#10;&#9;&#9;&#9;&#9;&#9;c-0.239-0.145-0.431-0.356-0.575-0.635c-0.144-0.281-0.218-0.607-0.222-0.974h3.17&#10;&#9;&#9;&#9;&#9;&#9;C280.354,478.233,280.682,478.173,280.916,478.052z M276.762,477.312c0.053-0.546,0.211-0.957,0.469-1.236&#10;&#9;&#9;&#9;&#9;&#9;c0.261-0.28,0.592-0.417,0.995-0.417c0.425,0,0.763,0.136,1.027,0.413c0.257,0.273,0.407,0.688,0.447,1.241H276.762z" style="fill:#000000;" id="XMLID_919_"/>
				<path d="M286.926,474.937c-0.42-0.256-0.882-0.386-1.379-0.386&#10;&#9;&#9;&#9;&#9;&#9;c-0.415,0-0.79,0.089-1.114,0.267c-0.331,0.176-0.649,0.452-0.952,0.828v-0.195c0-0.296-0.071-0.519-0.218-0.677&#10;&#9;&#9;&#9;&#9;&#9;c-0.143-0.156-0.329-0.234-0.56-0.234c-0.233,0-0.419,0.078-0.553,0.228c-0.134,0.155-0.2,0.382-0.2,0.692v6.995&#10;&#9;&#9;&#9;&#9;&#9;c0,0.355,0.051,0.62,0.146,0.807c0.102,0.183,0.301,0.275,0.607,0.275c0.518,0,0.778-0.359,0.778-1.068v-2.433&#10;&#9;&#9;&#9;&#9;&#9;c0.287,0.358,0.586,0.634,0.901,0.816c0.314,0.187,0.704,0.279,1.165,0.279c0.385,0,0.741-0.076,1.079-0.227&#10;&#9;&#9;&#9;&#9;&#9;c0.334-0.153,0.622-0.372,0.868-0.654c0.245-0.283,0.441-0.632,0.58-1.05c0.14-0.419,0.21-0.878,0.21-1.376&#10;&#9;&#9;&#9;&#9;&#9;c0-0.677-0.122-1.261-0.366-1.758C287.675,475.572,287.346,475.196,286.926,474.937z M286.451,478.94&#10;&#9;&#9;&#9;&#9;&#9;c-0.137,0.313-0.32,0.546-0.552,0.704c-0.229,0.154-0.48,0.232-0.748,0.232c-0.454,0-0.828-0.179-1.133-0.536&#10;&#9;&#9;&#9;&#9;&#9;c-0.306-0.358-0.46-0.862-0.46-1.504c0-0.686,0.154-1.204,0.462-1.558c0.306-0.35,0.684-0.527,1.13-0.527&#10;&#9;&#9;&#9;&#9;&#9;c0.281,0,0.541,0.084,0.77,0.248c0.229,0.163,0.411,0.397,0.541,0.705c0.13,0.306,0.197,0.674,0.197,1.101&#10;&#9;&#9;&#9;&#9;&#9;C286.658,478.248,286.589,478.626,286.451,478.94z" style="fill:#000000;" id="XMLID_390_"/>
				<path d="M289.9,474.54c-0.238,0-0.428,0.079-0.58,0.245&#10;&#9;&#9;&#9;&#9;&#9;c-0.146,0.162-0.222,0.403-0.222,0.721v4.641c0,0.313,0.076,0.555,0.222,0.729c0.152,0.17,0.342,0.254,0.58,0.254&#10;&#9;&#9;&#9;&#9;&#9;c0.238,0,0.432-0.082,0.588-0.25c0.154-0.165,0.231-0.41,0.231-0.732v-4.688c0-0.287-0.078-0.512-0.231-0.675&#10;&#9;&#9;&#9;&#9;&#9;C290.332,474.619,290.138,474.54,289.9,474.54z" style="fill:#000000;" id="XMLID_389_"/>
				<path d="M289.917,472.199c-0.217,0-0.408,0.076-0.571,0.223&#10;&#9;&#9;&#9;&#9;&#9;c-0.166,0.149-0.248,0.339-0.248,0.568c0,0.253,0.081,0.447,0.242,0.586c0.159,0.138,0.35,0.209,0.577,0.209&#10;&#9;&#9;&#9;&#9;&#9;c0.22,0,0.408-0.071,0.566-0.209c0.157-0.14,0.236-0.335,0.236-0.585c0-0.257-0.082-0.454-0.244-0.591&#10;&#9;&#9;&#9;&#9;&#9;C290.314,472.267,290.13,472.199,289.917,472.199z" style="fill:#000000;" id="XMLID_388_"/>
				<path d="M297.258,479.569l-1.662-2.614l0.86-0.789c0.438-0.395,0.659-0.714,0.659-0.951&#10;&#9;&#9;&#9;&#9;&#9;c0-0.192-0.068-0.355-0.2-0.483c-0.139-0.128-0.306-0.193-0.51-0.193c-0.168,0-0.312,0.043-0.431,0.13&#10;&#9;&#9;&#9;&#9;&#9;c-0.121,0.086-0.29,0.251-0.517,0.486l-1.822,1.914v-3.933c0-0.329-0.074-0.582-0.221-0.751&#10;&#9;&#9;&#9;&#9;&#9;c-0.148-0.172-0.344-0.258-0.593-0.258c-0.255,0-0.457,0.093-0.596,0.283c-0.135,0.189-0.207,0.462-0.207,0.821v6.913&#10;&#9;&#9;&#9;&#9;&#9;c0,0.323,0.073,0.569,0.215,0.733c0.141,0.169,0.339,0.25,0.588,0.25c0.213,0,0.406-0.084,0.566-0.254&#10;&#9;&#9;&#9;&#9;&#9;c0.165-0.167,0.248-0.406,0.248-0.718v-1.291l0.88-0.83l1.427,2.353c0.181,0.278,0.33,0.471,0.436,0.58&#10;&#9;&#9;&#9;&#9;&#9;c0.106,0.109,0.26,0.16,0.458,0.16c0.226,0,0.413-0.073,0.553-0.221c0.142-0.151,0.214-0.352,0.214-0.61&#10;&#9;&#9;&#9;&#9;&#9;c0-0.089-0.029-0.19-0.082-0.289C297.47,479.909,297.379,479.765,297.258,479.569z" style="fill:#000000;" id="XMLID_387_"/>
				<path d="M299.45,479.343c-0.25,0-0.458,0.087-0.63,0.261&#10;&#9;&#9;&#9;&#9;&#9;c-0.17,0.173-0.256,0.381-0.256,0.622c0,0.287,0.09,0.51,0.268,0.665c0.179,0.159,0.389,0.238,0.633,0.238&#10;&#9;&#9;&#9;&#9;&#9;c0.237,0,0.444-0.079,0.624-0.241c0.174-0.157,0.264-0.38,0.264-0.662c0-0.243-0.089-0.454-0.264-0.626&#10;&#9;&#9;&#9;&#9;&#9;C299.909,479.43,299.698,479.343,299.45,479.343z" style="fill:#000000;" id="XMLID_386_"/>
				<path d="M306.835,478.417c-0.167,0-0.308,0.054-0.422,0.156&#10;&#9;&#9;&#9;&#9;&#9;c-0.113,0.104-0.219,0.245-0.318,0.427c-0.178,0.309-0.381,0.538-0.616,0.689c-0.231,0.15-0.509,0.225-0.835,0.225&#10;&#9;&#9;&#9;&#9;&#9;c-0.24,0-0.463-0.045-0.665-0.141c-0.201-0.093-0.372-0.229-0.516-0.409c-0.143-0.18-0.252-0.398-0.325-0.652&#10;&#9;&#9;&#9;&#9;&#9;c-0.075-0.256-0.114-0.537-0.114-0.842c0-0.646,0.147-1.161,0.439-1.534c0.294-0.375,0.682-0.561,1.158-0.561&#10;&#9;&#9;&#9;&#9;&#9;c0.333,0,0.607,0.075,0.821,0.227c0.219,0.148,0.424,0.375,0.622,0.674c0.109,0.158,0.209,0.269,0.299,0.339&#10;&#9;&#9;&#9;&#9;&#9;c0.09,0.068,0.201,0.104,0.338,0.104c0.202,0,0.377-0.068,0.524-0.203c0.143-0.135,0.214-0.3,0.214-0.492&#10;&#9;&#9;&#9;&#9;&#9;c0-0.192-0.063-0.397-0.192-0.617c-0.128-0.218-0.314-0.424-0.556-0.62c-0.245-0.192-0.54-0.352-0.89-0.474&#10;&#9;&#9;&#9;&#9;&#9;c-0.353-0.123-0.737-0.184-1.157-0.184c-0.674,0-1.26,0.138-1.746,0.419c-0.486,0.279-0.859,0.674-1.113,1.183&#10;&#9;&#9;&#9;&#9;&#9;c-0.259,0.511-0.387,1.098-0.387,1.765c0,0.981,0.281,1.764,0.841,2.349c0.562,0.582,1.344,0.876,2.348,0.876&#10;&#9;&#9;&#9;&#9;&#9;c0.469,0,0.893-0.065,1.269-0.192c0.377-0.126,0.688-0.295,0.934-0.502c0.248-0.207,0.434-0.425,0.554-0.656&#10;&#9;&#9;&#9;&#9;&#9;c0.121-0.229,0.182-0.446,0.182-0.646c0-0.169-0.066-0.331-0.198-0.481C307.198,478.493,307.033,478.417,306.835,478.417z" style="fill:#000000;" id="XMLID_385_"/>
				<path d="M313.647,475.453c-0.288-0.29-0.629-0.518-1.027-0.674&#10;&#9;&#9;&#9;&#9;&#9;c-0.4-0.161-0.846-0.239-1.336-0.239c-0.483,0-0.924,0.078-1.326,0.234c-0.399,0.158-0.737,0.38-1.019,0.669&#10;&#9;&#9;&#9;&#9;&#9;c-0.281,0.288-0.498,0.636-0.649,1.045c-0.146,0.408-0.224,0.858-0.224,1.349c0,0.485,0.076,0.929,0.219,1.332&#10;&#9;&#9;&#9;&#9;&#9;c0.152,0.402,0.369,0.75,0.657,1.048c0.285,0.292,0.627,0.521,1.016,0.676c0.392,0.159,0.835,0.239,1.326,0.239&#10;&#9;&#9;&#9;&#9;&#9;c0.492,0,0.937-0.08,1.336-0.234c0.394-0.158,0.735-0.382,1.02-0.675c0.286-0.291,0.502-0.641,0.656-1.05&#10;&#9;&#9;&#9;&#9;&#9;c0.146-0.408,0.222-0.855,0.222-1.336c0-0.489-0.075-0.932-0.221-1.339C314.148,476.096,313.933,475.749,313.647,475.453z&#10;&#9;&#9;&#9;&#9;&#9; M312.455,479.368c-0.29,0.372-0.682,0.557-1.171,0.557c-0.324,0-0.605-0.086-0.846-0.253c-0.24-0.168-0.423-0.409-0.553-0.729&#10;&#9;&#9;&#9;&#9;&#9;c-0.129-0.317-0.194-0.684-0.194-1.108c0-0.428,0.066-0.803,0.197-1.125c0.131-0.321,0.314-0.563,0.556-0.727&#10;&#9;&#9;&#9;&#9;&#9;c0.242-0.164,0.522-0.246,0.84-0.246c0.489,0,0.881,0.182,1.171,0.555c0.289,0.367,0.436,0.881,0.436,1.543&#10;&#9;&#9;&#9;&#9;&#9;C312.891,478.487,312.744,478.999,312.455,479.368z" style="fill:#000000;" id="XMLID_382_"/>
				<path d="M323.569,474.813c-0.32-0.173-0.705-0.262-1.146-0.262&#10;&#9;&#9;&#9;&#9;&#9;c-0.381,0-0.726,0.081-1.039,0.241c-0.313,0.161-0.607,0.408-0.881,0.738c-0.191-0.326-0.431-0.572-0.725-0.735&#10;&#9;&#9;&#9;&#9;&#9;c-0.292-0.162-0.641-0.243-1.048-0.243c-0.394,0-0.748,0.079-1.07,0.241c-0.319,0.156-0.619,0.403-0.903,0.738v-0.153&#10;&#9;&#9;&#9;&#9;&#9;c0-0.261-0.074-0.466-0.222-0.616c-0.15-0.145-0.334-0.221-0.557-0.221c-0.227,0-0.412,0.078-0.555,0.239&#10;&#9;&#9;&#9;&#9;&#9;c-0.14,0.157-0.21,0.389-0.21,0.694v4.636c0,0.336,0.078,0.591,0.235,0.765c0.156,0.171,0.357,0.257,0.604,0.257&#10;&#9;&#9;&#9;&#9;&#9;c0.248,0,0.447-0.087,0.603-0.257c0.15-0.173,0.226-0.428,0.226-0.765v-2.188c0-0.684,0.086-1.206,0.253-1.566&#10;&#9;&#9;&#9;&#9;&#9;c0.168-0.369,0.516-0.551,1.048-0.551c0.263,0,0.459,0.072,0.581,0.22c0.122,0.142,0.198,0.331,0.226,0.552&#10;&#9;&#9;&#9;&#9;&#9;c0.027,0.226,0.04,0.544,0.04,0.953v2.581c0,0.341,0.078,0.594,0.232,0.767c0.148,0.17,0.349,0.255,0.594,0.255&#10;&#9;&#9;&#9;&#9;&#9;c0.254,0,0.455-0.085,0.611-0.255c0.156-0.173,0.231-0.426,0.231-0.767v-2.154c0-0.694,0.062-1.178,0.178-1.452&#10;&#9;&#9;&#9;&#9;&#9;c0.109-0.209,0.259-0.383,0.45-0.508c0.192-0.125,0.395-0.192,0.609-0.192c0.264,0,0.463,0.072,0.596,0.215&#10;&#9;&#9;&#9;&#9;&#9;c0.128,0.142,0.209,0.319,0.239,0.529c0.029,0.209,0.043,0.486,0.043,0.836v2.725c0,0.336,0.079,0.591,0.235,0.765&#10;&#9;&#9;&#9;&#9;&#9;c0.157,0.171,0.356,0.257,0.603,0.257c0.253,0,0.458-0.085,0.612-0.255c0.154-0.173,0.229-0.426,0.229-0.767v-3.163&#10;&#9;&#9;&#9;&#9;&#9;c0-0.629-0.068-1.091-0.206-1.385C324.128,475.237,323.888,474.987,323.569,474.813z" style="fill:#000000;" id="XMLID_381_"/>
			</g>
			<g id="XMLID_366_">
				<path d="M245.273,477.444c-0.001-0.004-0.001-0.006-0.001-0.011&#10;&#9;&#9;&#9;&#9;&#9;C245.272,477.438,245.272,477.44,245.273,477.444z" style="fill:#000000;" id="XMLID_379_"/>
				<path d="M245.355,477.961c0.001,0,0.001,0,0.001,0c-0.031-0.147-0.055-0.294-0.073-0.438&#10;&#9;&#9;&#9;&#9;&#9;C245.301,477.669,245.326,477.816,245.355,477.961z" style="fill:#000000;" id="XMLID_378_"/>
				<path d="M245.891,479.466c-0.004-0.006-0.007-0.013-0.01-0.021&#10;&#9;&#9;&#9;&#9;&#9;C245.885,479.452,245.888,479.46,245.891,479.466z" style="fill:#000000;" id="XMLID_377_"/>
				<path d="M245.84,479.366c-0.014-0.027-0.027-0.056-0.041-0.084&#10;&#9;&#9;&#9;&#9;&#9;C245.813,479.311,245.826,479.338,245.84,479.366z" style="fill:#000000;" id="XMLID_376_"/>
				<path d="M245.506,478.541c0.079,0.25,0.175,0.492,0.286,0.724&#10;&#9;&#9;&#9;&#9;&#9;c-0.113-0.236-0.206-0.479-0.284-0.724H245.506z" style="fill:#000000;" id="XMLID_375_"/>
				<path d="M250.736,470.681l-0.076-0.259c0.299-0.063,0.524-0.329,0.524-0.646&#10;&#9;&#9;&#9;&#9;&#9;c0-0.364-0.297-0.659-0.66-0.659c-0.365,0-0.66,0.295-0.66,0.659c0,0.317,0.225,0.583,0.522,0.646l0.084,0.289&#10;&#9;&#9;&#9;&#9;&#9;c-1.021,0.14-1.834,0.539-1.834,0.539l0.144,0.441c0.618-0.206,1.153-0.331,1.64-0.383c0.476-0.051,0.834-0.073,1.126-0.073&#10;&#9;&#9;&#9;&#9;&#9;c0.314,0,0.544,0.025,0.809,0.069l0.075-0.476C252.429,470.828,251.698,470.603,250.736,470.681z" style="fill:#000000;" id="XMLID_374_"/>
				<path d="M245.453,473.188c-0.017,0.024-0.497,0.465-0.876,1.28&#10;&#9;&#9;&#9;&#9;&#9;c-0.016-0.026-0.035-0.051-0.056-0.074c-0.113-0.124-0.272-0.187-0.473-0.184c-0.002,0-0.006,0-0.01,0&#10;&#9;&#9;&#9;&#9;&#9;c-0.124,0-0.21-0.042-0.266-0.092c0.055-0.071,0.089-0.16,0.089-0.258c0-0.231-0.187-0.419-0.419-0.419&#10;&#9;&#9;&#9;&#9;&#9;c-0.23,0-0.417,0.188-0.417,0.419c0,0.231,0.187,0.417,0.417,0.417c0.037,0,0.071-0.005,0.105-0.012&#10;&#9;&#9;&#9;&#9;&#9;c0.102,0.113,0.265,0.214,0.504,0.209c0.123-0.001,0.214,0.03,0.273,0.097c0.07,0.076,0.093,0.185,0.1,0.267&#10;&#9;&#9;&#9;&#9;&#9;c-0.001,0.002-0.001,0.004-0.002,0.004c-0.272,0.743-0.195,1.668-0.195,1.668l0.661,0.026c0.013-0.336,0.062-0.926,0.232-1.393&#10;&#9;&#9;&#9;&#9;&#9;c0.328-0.906,0.741-1.472,0.757-1.496l0.004-0.005c0.024-0.031,0.047-0.06,0.071-0.089l-0.196-0.142L245.453,473.188z" style="fill:#000000;" id="XMLID_373_"/>
				<path d="M257.294,471.787c-0.23,0-0.418,0.187-0.418,0.417&#10;&#9;&#9;&#9;&#9;&#9;c0,0.037,0.006,0.071,0.015,0.104c-0.115,0.104-0.214,0.267-0.211,0.507c0.002,0.123-0.03,0.212-0.096,0.273&#10;&#9;&#9;&#9;&#9;&#9;c-0.053,0.047-0.12,0.072-0.185,0.088c-0.492-0.689-1.097-1.109-1.097-1.109l-0.474,0.508c0.358,0.326,0.724,0.734,1.08,1.244&#10;&#9;&#9;&#9;&#9;&#9;c0.246,0.352,0.499,0.806,0.71,1.259l0.64-0.304c0,0-0.292-0.722-0.704-1.369c0.071-0.025,0.143-0.064,0.207-0.12&#10;&#9;&#9;&#9;&#9;&#9;c0.125-0.113,0.187-0.273,0.183-0.474c-0.001-0.13,0.042-0.218,0.093-0.276c0.071,0.054,0.16,0.089,0.257,0.089&#10;&#9;&#9;&#9;&#9;&#9;c0.232,0,0.419-0.187,0.419-0.419C257.712,471.974,257.525,471.787,257.294,471.787z" style="fill:#000000;" id="XMLID_372_"/>
				<path d="M255.633,477.537c-0.88,0.429-2.33,0.996-4.237,1.262&#10;&#9;&#9;&#9;&#9;&#9;c-0.749,0.104-1.474,0.142-2.143,0.142c-0.869,0-1.637-0.065-2.226-0.139c-0.672-0.085-1.198-0.188-1.52-0.261&#10;&#9;&#9;&#9;&#9;&#9;c0.078,0.245,0.171,0.487,0.284,0.724c0.002,0.006,0.005,0.013,0.008,0.017c0.014,0.027,0.027,0.056,0.041,0.084&#10;&#9;&#9;&#9;&#9;&#9;c0.013,0.027,0.027,0.054,0.041,0.079c0.004,0.007,0.007,0.015,0.01,0.021c0.189,0.356,0.417,0.684,0.675,0.968&#10;&#9;&#9;&#9;&#9;&#9;c0.9,0.984,1.816,1.139,1.825,1.141l0.015,0.002l0.013,0.005c0.009,0.003,0.821,0.265,2.057,0.265&#10;&#9;&#9;&#9;&#9;&#9;c1.216,0,2.409-0.245,3.545-0.729c0.842-0.431,1.639-1.085,2.033-1.668c0.305-0.452,0.526-0.934,0.656-1.434&#10;&#9;&#9;&#9;&#9;&#9;c0.07-0.266,0.125-0.693,0.092-1.141C256.555,477.042,256.163,477.279,255.633,477.537z" style="fill:#000000;" id="XMLID_371_"/>
				<path d="M252.322,471.655c-0.264-0.043-0.477-0.068-0.777-0.068&#10;&#9;&#9;&#9;&#9;&#9;c-0.279,0-0.626,0.023-1.089,0.071c-0.465,0.049-0.982,0.171-1.583,0.373c-0.842,0.282-1.604,0.724-2.204,1.28l-0.02,0.019&#10;&#9;&#9;&#9;&#9;&#9;c-0.089,0.081-0.275,0.254-0.488,0.525c-0.026,0.037-0.408,0.578-0.709,1.408c-0.226,0.622-0.216,1.527-0.216,1.537v0.002&#10;&#9;&#9;&#9;&#9;&#9;c0,0.212,0.012,0.423,0.035,0.632c0,0.005,0,0.007,0.001,0.011c0.003,0.027,0.007,0.053,0.01,0.079&#10;&#9;&#9;&#9;&#9;&#9;c0.018,0.144,0.043,0.291,0.074,0.438c0.438,0.112,3.048,0.721,5.966,0.314c1.829-0.255,3.218-0.795,4.061-1.204&#10;&#9;&#9;&#9;&#9;&#9;c0.701-0.34,1.151-0.647,1.325-0.774c-0.173-0.643-0.651-1.65-1.089-2.279C254.367,472.229,253.016,471.769,252.322,471.655z&#10;&#9;&#9;&#9;&#9;&#9; M248.679,476.914c-0.971,0-1.759-0.787-1.759-1.759c0-0.972,0.788-1.76,1.759-1.76c0.973,0,1.761,0.788,1.761,1.76&#10;&#9;&#9;&#9;&#9;&#9;C250.439,476.127,249.652,476.914,248.679,476.914z M253.829,475.617c-0.601,0-1.089-0.489-1.089-1.09&#10;&#9;&#9;&#9;&#9;&#9;c0-0.602,0.487-1.089,1.089-1.089c0.601,0,1.089,0.487,1.089,1.089C254.918,475.128,254.429,475.617,253.829,475.617z" style="fill:#000000;" id="XMLID_367_"/>
			</g>
		</g>
	</g>
</g>
</svg>